<?xml version="1.0" encoding="UTF-8" standalone="no"?><!DOCTYPE svg PUBLIC "-//W3C//DTD SVG 1.1//EN" "http://www.w3.org/Graphics/SVG/1.1/DTD/svg11.dtd"><svg width="100%" height="100%" viewBox="0 0 32 16" version="1.1" xmlns="http://www.w3.org/2000/svg" xmlns:xlink="http://www.w3.org/1999/xlink" xml:space="preserve" xmlns:serif="http://www.serif.com/" style="fill-rule:evenodd;clip-rule:evenodd;stroke-linejoin:round;stroke-miterlimit:2;"><rect id="Bm_Double5" x="0" y="0" width="32" height="16" style="fill:none;"/><g id="beat5-double" serif:id="beat5 double"><rect x="1.717" y="8.19" width="3.331" height="5.77" style="fill:#fff;"/><rect x="5.821" y="8.19" width="3.331" height="5.77" style="fill:#fff;"/><rect x="9.925" y="8.19" width="3.331" height="5.77" style="fill:#fff;"/><rect x="3.769" y="2.034" width="3.331" height="5.77" style="fill:#fff;"/><rect x="7.873" y="2.034" width="3.331" height="5.77" style="fill:#fff;"/><path d="M15.534,11.146l0,-1.088l1.691,-0l0,-4.21l-0.08,-0l-1.278,1.673l-0.863,-0.675l1.502,-1.979l2.069,0l-0,5.191l1.331,-0l0,1.088l-4.372,-0Z" style="fill:#fff;fill-rule:nonzero;"/><path d="M22.074,11.254c-0.822,-0 -1.43,-0.285 -1.826,-0.855c-0.396,-0.569 -0.594,-1.367 -0.594,-2.392c0,-1.026 0.198,-1.823 0.594,-2.393c0.396,-0.57 1.004,-0.855 1.826,-0.855c0.821,0 1.43,0.285 1.826,0.855c0.396,0.57 0.593,1.367 0.593,2.393c0,1.025 -0.197,1.823 -0.593,2.392c-0.396,0.57 -1.005,0.855 -1.826,0.855Zm-0,-1.142c0.36,-0 0.608,-0.132 0.746,-0.396c0.138,-0.264 0.207,-0.636 0.207,-1.116l0,-1.187c0,-0.48 -0.069,-0.852 -0.207,-1.115c-0.138,-0.264 -0.386,-0.396 -0.746,-0.396c-0.36,-0 -0.609,0.132 -0.747,0.396c-0.138,0.263 -0.207,0.635 -0.207,1.115l0,1.187c0,0.48 0.069,0.852 0.207,1.116c0.138,0.264 0.387,0.396 0.747,0.396Z" style="fill:#fff;fill-rule:nonzero;"/><path d="M26.856,7.8l-1.016,1.124l-0,2.114l-0.54,0l0,-6.279l0.54,0l-0,3.536l0.018,-0l1.007,-1.161l2.069,-2.375l0.657,0l-2.366,2.672l2.483,3.607l-0.666,0l-2.186,-3.238Z" style="fill:#fff;fill-rule:nonzero;"/></g></svg>