<?xml version="1.0" encoding="UTF-8" standalone="no"?><!DOCTYPE svg PUBLIC "-//W3C//DTD SVG 1.1//EN" "http://www.w3.org/Graphics/SVG/1.1/DTD/svg11.dtd"><svg width="100%" height="100%" viewBox="0 0 32 16" version="1.1" xmlns="http://www.w3.org/2000/svg" xmlns:xlink="http://www.w3.org/1999/xlink" xml:space="preserve" xmlns:serif="http://www.serif.com/" style="fill-rule:evenodd;clip-rule:evenodd;stroke-linejoin:round;stroke-miterlimit:2;"><rect id="Bm_Double7" x="0" y="0" width="32" height="16" style="fill:none;"/><g id="beat7-double" serif:id="beat7 double"><path d="M19.202,10.313l0,-0.804l1.25,-0l0,-3.112l-0.059,-0l-0.945,1.237l-0.638,-0.499l1.111,-1.463l1.529,0l-0,3.837l0.984,-0l-0,0.804l-3.232,0Z" style="fill:#fff;fill-rule:nonzero;"/><path d="M24.282,10.313l0,-0.891l-2.041,0l0,-0.858l1.809,-2.892l1.183,0l0,2.972l0.585,0l0,0.778l-0.585,0l0,0.891l-0.951,0Zm-1.243,-1.669l1.243,0l0,-1.941l-0.066,-0l-1.177,1.941Z" style="fill:#fff;fill-rule:nonzero;"/><path d="M27.571,7.84l-0.751,0.831l0,1.562l-0.399,0l0,-4.641l0.399,0l0,2.613l0.013,0l0.745,-0.857l1.529,-1.756l0.486,0l-1.749,1.975l1.835,2.666l-0.492,0l-1.616,-2.393Z" style="fill:#fff;fill-rule:nonzero;"/><rect x="1.895" y="8.19" width="3.331" height="5.77" style="fill:#fff;"/><rect x="6" y="8.19" width="3.331" height="5.77" style="fill:#fff;"/><rect x="10.104" y="8.19" width="3.331" height="5.77" style="fill:#fff;"/><rect x="14.208" y="8.19" width="3.331" height="5.77" style="fill:#fff;"/><rect x="3.947" y="2.034" width="3.331" height="5.77" style="fill:#fff;"/><rect x="8.052" y="2.034" width="3.331" height="5.77" style="fill:#fff;"/><rect x="12.156" y="2.034" width="3.331" height="5.77" style="fill:#fff;"/></g></svg>