<?xml version="1.0" encoding="UTF-8" standalone="no"?><!DOCTYPE svg PUBLIC "-//W3C//DTD SVG 1.1//EN" "http://www.w3.org/Graphics/SVG/1.1/DTD/svg11.dtd"><svg width="100%" height="100%" viewBox="0 0 32 16" version="1.1" xmlns="http://www.w3.org/2000/svg" xmlns:xlink="http://www.w3.org/1999/xlink" xml:space="preserve" xmlns:serif="http://www.serif.com/" style="fill-rule:evenodd;clip-rule:evenodd;stroke-linejoin:round;stroke-miterlimit:2;"><rect id="Bm_Single5" x="0" y="0" width="32" height="16" style="fill:none;"/><g id="beat5"><rect x="2.515" y="8.19" width="3.331" height="5.77" style="fill:#fff;"/><rect x="6.619" y="8.19" width="3.331" height="5.77" style="fill:#fff;"/><rect x="10.723" y="8.19" width="3.331" height="5.77" style="fill:#fff;"/><rect x="4.567" y="2.034" width="3.331" height="5.77" style="fill:#fff;"/><rect x="8.671" y="2.034" width="3.331" height="5.77" style="fill:#fff;"/><path d="M23.469,1.355c3.679,0 6.666,2.987 6.666,6.667c-0,3.679 -2.987,6.666 -6.666,6.666c-3.679,-0 -6.666,-2.987 -6.666,-6.666c-0,-3.68 2.987,-6.667 6.666,-6.667Zm-0,5.052c0.891,0 1.614,0.724 1.614,1.615c0,0.891 -0.723,1.614 -1.614,1.614c-0.891,0 -1.615,-0.723 -1.615,-1.614c0,-0.891 0.724,-1.615 1.615,-1.615Z" style="fill:#fff;"/></g></svg>