<?xml version="1.0" encoding="UTF-8" standalone="no"?><!DOCTYPE svg PUBLIC "-//W3C//DTD SVG 1.1//EN" "http://www.w3.org/Graphics/SVG/1.1/DTD/svg11.dtd"><svg width="100%" height="100%" viewBox="0 0 32 16" version="1.1" xmlns="http://www.w3.org/2000/svg" xmlns:xlink="http://www.w3.org/1999/xlink" xml:space="preserve" xmlns:serif="http://www.serif.com/" style="fill-rule:evenodd;clip-rule:evenodd;stroke-linejoin:round;stroke-miterlimit:2;"><rect id="Bm_Single5" x="0" y="0" width="32" height="16" style="fill:none;"/><g id="beat5"><rect x="1.352" y="8.155" width="2.631" height="4.558" style="fill:#fff;"/><rect x="4.594" y="8.155" width="2.631" height="4.558" style="fill:#fff;"/><rect x="7.836" y="8.155" width="2.631" height="4.558" style="fill:#fff;"/><rect x="2.973" y="3.292" width="2.631" height="4.558" style="fill:#fff;"/><rect x="6.215" y="3.292" width="2.631" height="4.558" style="fill:#fff;"/><path d="M17.404,2.755c2.906,0 5.265,2.36 5.265,5.267c0,2.906 -2.359,5.266 -5.265,5.266c-2.906,-0 -5.266,-2.36 -5.266,-5.266c0,-2.907 2.36,-5.267 5.266,-5.267Zm-0,3.991c0.704,0 1.275,0.572 1.275,1.276c-0,0.704 -0.571,1.275 -1.275,1.275c-0.704,-0 -1.276,-0.571 -1.276,-1.275c0,-0.704 0.572,-1.276 1.276,-1.276Z" style="fill:#fff;"/><path d="M26.406,12.713l-2.066,-2.718l0,-6.398l6.308,-0l-0,6.398l-2.065,2.718l-2.177,-0Z" style="fill:#d1ffcf;"/></g></svg>