<?xml version="1.0" encoding="UTF-8" standalone="no"?><!DOCTYPE svg PUBLIC "-//W3C//DTD SVG 1.1//EN" "http://www.w3.org/Graphics/SVG/1.1/DTD/svg11.dtd"><svg width="100%" height="100%" viewBox="0 0 32 16" version="1.1" xmlns="http://www.w3.org/2000/svg" xmlns:xlink="http://www.w3.org/1999/xlink" xml:space="preserve" xmlns:serif="http://www.serif.com/" style="fill-rule:evenodd;clip-rule:evenodd;stroke-linejoin:round;stroke-miterlimit:2;"><rect id="Ds3ddx_Double" x="0" y="0" width="32" height="16" style="fill:none;"/><g id="Layer2"><rect id="rect4136-2" x="1.16" y="3.197" width="1.693" height="9.491" style="fill:#c9ffd3;"/><path id="rect4136-21" serif:id="rect4136-2" d="M13.245,2.351l0,-1.694l-9.49,0l-0,1.694l9.49,-0Z" style="fill:#fff8c9;"/><rect id="rect4136-22" serif:id="rect4136-2" x="14.146" y="3.197" width="1.693" height="9.491" style="fill:#c9ffd3;"/><path id="rect4136-23" serif:id="rect4136-2" d="M3.755,13.688l-0,1.693l9.49,-0l0,-1.693l-9.49,-0Z" style="fill:#fff8c9;"/><path id="rect4136-24" serif:id="rect4136-2" d="M8.112,4.851l-0,-1.654l-4.357,0l-0,4.363l1.648,0l2.709,-2.709Z" style="fill:#fee;"/><path id="rect4136-25" serif:id="rect4136-2" d="M8.888,4.851l0,-1.654l4.357,0l0,4.363l-1.648,0l-2.709,-2.709Z" style="fill:#fee;"/><path id="rect4136-26" serif:id="rect4136-2" d="M5.288,8.324l-1.533,0l-0,4.364l4.357,-0l-0,-1.539l-2.824,-2.825Z" style="fill:#e3e6ff;"/><path id="rect4136-27" serif:id="rect4136-2" d="M11.712,8.324l1.533,0l0,4.364l-4.357,-0l0,-1.539l2.824,-2.825Z" style="fill:#e3e6ff;"/><rect id="rect4136-28" serif:id="rect4136-2" x="16.16" y="3.197" width="1.693" height="9.491" style="fill:#c9ffd3;"/><path id="rect4136-29" serif:id="rect4136-2" d="M28.245,2.351l0,-1.694l-9.49,0l-0,1.694l9.49,-0Z" style="fill:#fff8c9;"/><rect id="rect4136-210" serif:id="rect4136-2" x="29.146" y="3.197" width="1.693" height="9.491" style="fill:#c9ffd3;"/><path id="rect4136-211" serif:id="rect4136-2" d="M18.755,13.688l-0,1.693l9.49,-0l0,-1.693l-9.49,-0Z" style="fill:#fff8c9;"/><path id="rect4136-212" serif:id="rect4136-2" d="M23.112,4.851l-0,-1.654l-4.357,0l-0,4.363l1.648,0l2.709,-2.709Z" style="fill:#fee;"/><path id="rect4136-213" serif:id="rect4136-2" d="M23.888,4.851l0,-1.654l4.357,0l0,4.363l-1.648,0l-2.709,-2.709Z" style="fill:#fee;"/><path id="rect4136-214" serif:id="rect4136-2" d="M26.712,8.324l1.533,0l0,4.364l-4.357,-0l0,-1.539l2.824,-2.825Z" style="fill:#e3e6ff;"/><path id="rect4136-215" serif:id="rect4136-2" d="M20.288,8.324l-1.533,0l-0,4.364l4.357,-0l-0,-1.539l-2.824,-2.825Z" style="fill:#e3e6ff;"/></g></svg>