<?xml version="1.0" encoding="UTF-8" standalone="no"?><!DOCTYPE svg PUBLIC "-//W3C//DTD SVG 1.1//EN" "http://www.w3.org/Graphics/SVG/1.1/DTD/svg11.dtd"><svg width="100%" height="100%" viewBox="0 0 32 16" version="1.1" xmlns="http://www.w3.org/2000/svg" xmlns:xlink="http://www.w3.org/1999/xlink" xml:space="preserve" xmlns:serif="http://www.serif.com/" style="fill-rule:evenodd;clip-rule:evenodd;stroke-linejoin:round;stroke-miterlimit:2;"><rect id="Ds3ddx_Routine5" x="-0" y="0" width="32" height="16" style="fill:none;"/><g id="Layer2"><path d="M8.289,0.657l0.338,0l4.576,1l0,0.694l-9.49,-0l-0,-0.694l4.576,-1Z" style="fill:#e3ff2c;"/><path d="M8.289,15.381l0.338,-0l4.576,-1l0,-0.693l-9.49,-0l-0,0.693l4.576,1Z" style="fill:#e3ff2c;"/><path d="M15.797,7.831l0,0.338l-1,4.576l-0.693,0l0,-9.49l0.693,-0l1,4.576Z" style="fill:#e3ff2c;"/><path d="M1.118,7.831l0,0.338l1,4.576l0.693,0l0,-9.49l-0.693,-0l-1,4.576Z" style="fill:#e3ff2c;"/><path id="rect4136-2" d="M8.07,4.851l-0,-1.654l-4.357,0l-0,4.363l1.648,0l2.709,-2.709Z" style="fill:#e3ff2c;"/><path d="M11.262,8l-2.804,-2.804l-2.804,2.804l2.804,2.804l2.804,-2.804Z" style="fill:#e3ff2c;"/><path id="rect4136-21" serif:id="rect4136-2" d="M8.846,4.851l0,-1.654l4.357,0l0,4.363l-1.648,0l-2.709,-2.709Z" style="fill:#e3ff2c;"/><path id="rect4136-22" serif:id="rect4136-2" d="M11.67,8.324l1.533,0l0,4.364l-4.357,-0l0,-1.539l2.824,-2.825Z" style="fill:#e3ff2c;"/><path id="rect4136-23" serif:id="rect4136-2" d="M5.245,8.324l-1.532,0l-0,4.364l4.357,-0l-0,-1.539l-2.825,-2.825Z" style="fill:#e3ff2c;"/><path d="M23.373,0.657l0.338,0l4.576,1l0,0.694l-9.49,-0l-0,-0.694l4.576,-1Z" style="fill:#e3ff2c;"/><path d="M23.373,15.381l0.338,-0l4.576,-1l0,-0.693l-9.49,-0l-0,0.693l4.576,1Z" style="fill:#e3ff2c;"/><path d="M30.882,7.831l-0,0.338l-1,4.576l-0.693,0l-0,-9.49l0.693,-0l1,4.576Z" style="fill:#e3ff2c;"/><path d="M16.203,7.831l-0,0.338l1,4.576l0.693,0l-0,-9.49l-0.693,-0l-1,4.576Z" style="fill:#e3ff2c;"/><path id="rect4136-24" serif:id="rect4136-2" d="M23.154,4.851l-0,-1.654l-4.357,0l-0,4.363l1.648,0l2.709,-2.709Z" style="fill:#e3ff2c;"/><path d="M26.346,8l-2.804,-2.804l-2.804,2.804l2.804,2.804l2.804,-2.804Z" style="fill:#e3ff2c;"/><path id="rect4136-25" serif:id="rect4136-2" d="M23.93,4.851l0,-1.654l4.357,0l0,4.363l-1.648,0l-2.709,-2.709Z" style="fill:#e3ff2c;"/><path id="rect4136-26" serif:id="rect4136-2" d="M26.755,8.324l1.532,0l0,4.364l-4.357,-0l0,-1.539l2.825,-2.825Z" style="fill:#e3ff2c;"/><path id="rect4136-27" serif:id="rect4136-2" d="M20.33,8.324l-1.533,0l-0,4.364l4.357,-0l-0,-1.539l-2.824,-2.825Z" style="fill:#e3ff2c;"/></g></svg>