<?xml version="1.0" encoding="UTF-8" standalone="no"?><!DOCTYPE svg PUBLIC "-//W3C//DTD SVG 1.1//EN" "http://www.w3.org/Graphics/SVG/1.1/DTD/svg11.dtd"><svg width="100%" height="100%" viewBox="0 0 32 16" version="1.1" xmlns="http://www.w3.org/2000/svg" xmlns:xlink="http://www.w3.org/1999/xlink" xml:space="preserve" xmlns:serif="http://www.serif.com/" style="fill-rule:evenodd;clip-rule:evenodd;stroke-linejoin:round;stroke-miterlimit:2;"><rect id="Ds3ddx_Single5" x="0" y="0" width="32" height="16" style="fill:none;"/><g id="Layer2"><path d="M15.831,0.657l0.338,0l4.576,1l0,0.694l-9.49,-0l-0,-0.694l4.576,-1Z" style="fill:#c9ffd3;"/><path d="M15.831,15.381l0.338,-0l4.576,-1l0,-0.693l-9.49,-0l-0,0.693l4.576,1Z" style="fill:#c9ffd3;"/><path d="M23.34,7.831l-0,0.338l-1,4.576l-0.694,0l0,-9.49l0.694,-0l1,4.576Z" style="fill:#c9ffd3;"/><path d="M8.66,7.831l0,0.338l1,4.576l0.694,0l-0,-9.49l-0.694,-0l-1,4.576Z" style="fill:#c9ffd3;"/><path id="rect4136-2" d="M15.612,4.851l-0,-1.654l-4.357,0l-0,4.363l1.648,0l2.709,-2.709Z" style="fill:#fee;"/><path d="M18.804,8l-2.804,-2.804l-2.804,2.804l2.804,2.804l2.804,-2.804Z" style="fill:#fffce4;"/><path id="rect4136-21" serif:id="rect4136-2" d="M16.388,4.851l0,-1.654l4.357,0l0,4.363l-1.648,0l-2.709,-2.709Z" style="fill:#fee;"/><path id="rect4136-22" serif:id="rect4136-2" d="M19.212,8.324l1.533,0l0,4.364l-4.357,-0l0,-1.539l2.824,-2.825Z" style="fill:#e3e6ff;"/><path id="rect4136-23" serif:id="rect4136-2" d="M12.788,8.324l-1.533,0l-0,4.364l4.357,-0l-0,-1.539l-2.824,-2.825Z" style="fill:#e3e6ff;"/></g></svg>