<?xml version="1.0" encoding="UTF-8" standalone="no"?><!DOCTYPE svg PUBLIC "-//W3C//DTD SVG 1.1//EN" "http://www.w3.org/Graphics/SVG/1.1/DTD/svg11.dtd"><svg width="100%" height="100%" viewBox="0 0 32 16" version="1.1" xmlns="http://www.w3.org/2000/svg" xmlns:xlink="http://www.w3.org/1999/xlink" xml:space="preserve" xmlns:serif="http://www.serif.com/" style="fill-rule:evenodd;clip-rule:evenodd;stroke-linejoin:round;stroke-miterlimit:2;"><rect id="Ds3ddx_Single" x="0" y="0" width="32" height="16" style="fill:none;"/><g id="Layer2"><rect id="rect4136-2" x="8.66" y="3.197" width="1.693" height="9.491" style="fill:#c9ffd3;fill-opacity:0.94;"/><path id="rect4136-21" serif:id="rect4136-2" d="M20.745,2.351l0,-1.694l-9.49,0l-0,1.694l9.49,-0Z" style="fill:#fff8c9;fill-opacity:0.94;"/><rect id="rect4136-22" serif:id="rect4136-2" x="21.646" y="3.197" width="1.693" height="9.491" style="fill:#c9ffd3;fill-opacity:0.94;"/><path id="rect4136-23" serif:id="rect4136-2" d="M11.255,13.688l-0,1.693l9.49,-0l0,-1.693l-9.49,-0Z" style="fill:#fff8c9;fill-opacity:0.94;"/><path id="rect4136-24" serif:id="rect4136-2" d="M15.612,4.851l-0,-1.654l-4.357,0l-0,4.363l1.648,0l2.709,-2.709Z" style="fill:#fee;fill-opacity:0.94;"/><path id="rect4136-25" serif:id="rect4136-2" d="M16.388,4.851l0,-1.654l4.357,0l0,4.363l-1.648,0l-2.709,-2.709Z" style="fill:#fee;fill-opacity:0.94;"/><path id="rect4136-26" serif:id="rect4136-2" d="M19.212,8.324l1.533,0l0,4.364l-4.357,-0l0,-1.539l2.824,-2.825Z" style="fill:#e3e6ff;fill-opacity:0.94;"/><path id="rect4136-27" serif:id="rect4136-2" d="M12.788,8.324l-1.533,0l-0,4.364l4.357,-0l-0,-1.539l-2.824,-2.825Z" style="fill:#e3e6ff;fill-opacity:0.94;"/></g></svg>