<?xml version="1.0" encoding="UTF-8" standalone="no"?><!DOCTYPE svg PUBLIC "-//W3C//DTD SVG 1.1//EN" "http://www.w3.org/Graphics/SVG/1.1/DTD/svg11.dtd"><svg width="100%" height="100%" viewBox="0 0 32 16" version="1.1" xmlns="http://www.w3.org/2000/svg" xmlns:xlink="http://www.w3.org/1999/xlink" xml:space="preserve" xmlns:serif="http://www.serif.com/" style="fill-rule:evenodd;clip-rule:evenodd;stroke-linejoin:round;stroke-miterlimit:2;"><rect id="Ez2_Double" x="-0" y="0.016" width="32" height="16" style="fill:none;"/><g id="Layer2"><path d="M9.405,11.409c0.147,0.049 0.305,0.075 0.468,0.075c0.152,0 0.299,-0.023 0.438,-0.066l3.693,2.133c-0.999,1.161 -2.48,1.897 -4.131,1.897c-1.66,-0 -3.147,-0.743 -4.147,-1.915l3.679,-2.124Z" style="fill:#fff5c0;"/><path d="M10.864,4.637c2.535,0.467 4.459,2.691 4.459,5.361c0,0.646 -0.113,1.266 -0.319,1.841l-3.671,-2.119c-0.062,-0.327 -0.231,-0.616 -0.469,-0.83l-0,-4.253Z" style="fill:#ffeded;"/><path d="M8.882,4.637l-0,4.253c-0.231,0.207 -0.397,0.485 -0.464,0.8l-3.684,2.127c-0.202,-0.569 -0.311,-1.181 -0.311,-1.819c-0,-2.67 1.923,-4.894 4.459,-5.361Z" style="fill:#ffeded;"/><path d="M21.66,11.409c0.147,0.049 0.304,0.075 0.467,0.075c0.153,0 0.3,-0.023 0.438,-0.066l3.694,2.133c-1,1.161 -2.481,1.897 -4.132,1.897c-1.659,-0 -3.147,-0.743 -4.147,-1.915l3.68,-2.124Z" style="fill:#fff5c0;"/><path d="M23.118,4.637c2.536,0.467 4.459,2.691 4.459,5.361c0,0.646 -0.112,1.266 -0.319,1.841l-3.67,-2.119c-0.062,-0.327 -0.231,-0.616 -0.47,-0.83l0,-4.253Z" style="fill:#ffeded;"/><path d="M21.136,4.637l0,4.253c-0.231,0.207 -0.397,0.485 -0.463,0.8l-3.684,2.127c-0.202,-0.569 -0.312,-1.181 -0.312,-1.819c-0,-2.67 1.924,-4.894 4.459,-5.361Z" style="fill:#ffeded;"/><path d="M4.485,1.759l2.981,-0c-0.068,-0.391 -0.348,-0.684 -0.682,-0.684l-1.617,0c-0.334,0 -0.613,0.293 -0.682,0.684Z" style="fill:#7899ff;"/><path d="M7.466,2.133l-2.981,0c0.069,0.391 0.348,0.683 0.682,0.683l1.617,0c0.334,0 0.613,-0.292 0.682,-0.683Z" style="fill:#7899ff;"/><path d="M12.279,1.759l2.982,-0c-0.069,-0.391 -0.348,-0.684 -0.682,-0.684l-1.618,0c-0.334,0 -0.613,0.293 -0.682,0.684Z" style="fill:#7899ff;"/><path d="M15.261,2.133l-2.981,0c0.068,0.391 0.348,0.683 0.681,0.683l1.618,0c0.334,0 0.613,-0.292 0.682,-0.683Z" style="fill:#7899ff;"/><path d="M16.802,1.759l2.981,-0c-0.069,-0.391 -0.348,-0.684 -0.682,-0.684l-1.618,0c-0.333,0 -0.613,0.293 -0.681,0.684Z" style="fill:#7899ff;"/><path d="M19.783,2.133l-2.981,0c0.069,0.391 0.348,0.683 0.681,0.683l1.618,0c0.334,0 0.613,-0.292 0.682,-0.683Z" style="fill:#7899ff;"/><path d="M24.596,1.759l2.981,-0c-0.068,-0.391 -0.348,-0.684 -0.681,-0.684l-1.618,0c-0.334,0 -0.613,0.293 -0.682,0.684Z" style="fill:#7899ff;"/><path d="M27.577,2.133l-2.981,0c0.069,0.391 0.348,0.683 0.682,0.683l1.618,0c0.333,0 0.613,-0.292 0.681,-0.683Z" style="fill:#7899ff;"/></g></svg>