<?xml version="1.0" encoding="UTF-8" standalone="no"?><!DOCTYPE svg PUBLIC "-//W3C//DTD SVG 1.1//EN" "http://www.w3.org/Graphics/SVG/1.1/DTD/svg11.dtd"><svg width="100%" height="100%" viewBox="0 0 32 16" version="1.1" xmlns="http://www.w3.org/2000/svg" xmlns:xlink="http://www.w3.org/1999/xlink" xml:space="preserve" xmlns:serif="http://www.serif.com/" style="fill-rule:evenodd;clip-rule:evenodd;stroke-linejoin:round;stroke-miterlimit:2;"><rect id="Ez2_Real" x="0" y="0" width="32" height="16" style="fill:none;"/><g id="Layer2"><path d="M0.793,7.488l8.414,0c-0.193,-1.103 -0.982,-1.929 -1.924,-1.929l-4.566,-0c-0.942,-0 -1.731,0.826 -1.924,1.929Z" style="fill:#7899ff;"/><path d="M9.207,8.545l-8.414,-0c0.194,1.102 0.982,1.928 1.924,1.928l4.566,-0c0.942,-0 1.73,-0.826 1.924,-1.928Z" style="fill:#4eff18;"/><path d="M22.793,7.488l8.414,0c-0.193,-1.103 -0.982,-1.929 -1.924,-1.929l-4.566,-0c-0.942,-0 -1.731,0.826 -1.924,1.929Z" style="fill:#7899ff;"/><path d="M31.207,8.545l-8.414,-0c0.194,1.102 0.982,1.928 1.924,1.928l4.566,-0c0.942,-0 1.73,-0.826 1.924,-1.928Z" style="fill:#4eff18;"/><path d="M15.503,9.452c0.156,0.052 0.323,0.08 0.497,0.08c0.162,-0 0.319,-0.024 0.466,-0.07l3.925,2.266c-1.062,1.235 -2.636,2.017 -4.391,2.017c-1.764,-0 -3.345,-0.79 -4.407,-2.035l3.91,-2.258Z" style="fill:#fff5c0;"/><path d="M17.053,2.255c2.695,0.496 4.74,2.86 4.74,5.697c-0,0.687 -0.12,1.346 -0.34,1.957l-3.901,-2.252c-0.066,-0.348 -0.245,-0.655 -0.499,-0.882l0,-4.52Z" style="fill:#ffeded;"/><path d="M14.947,2.255l-0,4.52c-0.246,0.22 -0.422,0.516 -0.493,0.851l-3.915,2.26c-0.215,-0.605 -0.332,-1.256 -0.332,-1.934c0,-2.837 2.045,-5.201 4.74,-5.697Z" style="fill:#ffeded;"/></g></svg>