<?xml version="1.0" encoding="UTF-8" standalone="no"?><!DOCTYPE svg PUBLIC "-//W3C//DTD SVG 1.1//EN" "http://www.w3.org/Graphics/SVG/1.1/DTD/svg11.dtd"><svg width="100%" height="100%" viewBox="0 0 32 16" version="1.1" xmlns="http://www.w3.org/2000/svg" xmlns:xlink="http://www.w3.org/1999/xlink" xml:space="preserve" xmlns:serif="http://www.serif.com/" style="fill-rule:evenodd;clip-rule:evenodd;stroke-linejoin:round;stroke-miterlimit:2;"><rect id="Gddm_New" x="0" y="0" width="32" height="16" style="fill:none;"/><circle cx="9.21" cy="12.511" r="2.673" style="fill:#fff;"/><circle cx="22.79" cy="12.511" r="2.673" style="fill:#fff;"/><circle cx="12.813" cy="7.42" r="2.673" style="fill:#fff;"/><circle cx="19.187" cy="7.42" r="2.673" style="fill:#fff;"/><path d="M4.434,1.996l-1.369,4.303c2.791,0.81 4.914,-0.007 6.945,-1.255l-3.03,-3.408l-2.546,0.36Z" style="fill:#fff;"/><path d="M1.849,8.867l0.57,3.644c2.335,-0.427 3.588,-1.799 4.617,-3.452l-3.458,-1.384l-1.729,1.192Z" style="fill:#fff;"/><path d="M30.151,2.492l0,5.214c-4.074,0.002 -4.865,-1.104 -7.386,-3.895l4.873,-2.603l2.513,1.284Z" style="fill:#fff;"/></svg>