<?xml version="1.0" encoding="UTF-8" standalone="no"?>
<!DOCTYPE svg PUBLIC "-//W3C//DTD SVG 1.1//EN" "http://www.w3.org/Graphics/SVG/1.1/DTD/svg11.dtd">
<svg width="100%" height="100%" viewBox="0 0 32 16" version="1.1" xmlns="http://www.w3.org/2000/svg" xmlns:xlink="http://www.w3.org/1999/xlink" xml:space="preserve" xmlns:serif="http://www.serif.com/" style="fill-rule:evenodd;clip-rule:evenodd;stroke-linejoin:round;stroke-miterlimit:2;">
    <g transform="matrix(1,0,0,1,0,-80)">
        <g id="Gdgf_Six" transform="matrix(1,0,0,1,-33,80)">
            <rect x="33" y="0" width="32" height="16" style="fill:none;"/>
            <g id="Layer2" transform="matrix(0.956362,0,0,0.963394,33.6982,-16.4646)">
                <g transform="matrix(0.224213,0,0,0.222577,1.62032,18.2709)">
                    <path d="M97.656,9.973C97.656,8.432 98.907,7.181 100.448,7.181L106.032,7.181C107.574,7.181 108.825,8.432 108.825,9.973L108.825,56.693C108.825,58.234 107.574,59.486 106.032,59.486L100.448,59.486C98.907,59.486 97.656,58.234 97.656,56.693L97.656,9.973Z" style="fill:rgb(225,90,255);"/>
                </g>
                <g transform="matrix(0.224213,0,0,0.222577,1.62032,18.2709)">
                    <path d="M15.089,2.086L15.043,2.086C14.654,2.39 14.499,3.004 14.651,3.5C14.816,3.586 14.988,3.654 15.166,3.699C15.255,3.554 15.322,3.396 15.392,3.238C15.473,3.266 15.543,3.321 15.621,3.359C15.507,3.755 15.404,4.155 15.301,4.554C15.274,4.546 15.219,4.53 15.192,4.522C15.144,4.527 15.095,4.529 15.047,4.531C15.082,4.351 15.103,4.167 15.105,3.982C14.93,3.934 14.756,3.882 14.582,3.832C14.184,4.131 14.023,4.754 14.179,5.254C14.344,5.34 14.515,5.409 14.694,5.451C14.781,5.301 14.859,5.144 14.921,4.978C14.995,5.029 15.072,5.074 15.152,5.112C15.048,5.506 14.946,5.9 14.84,6.292C14.809,6.282 14.747,6.262 14.716,6.252C14.672,6.26 14.628,6.267 14.584,6.272C14.614,6.089 14.639,5.904 14.644,5.717C14.485,5.678 14.33,5.619 14.171,5.584C14.078,5.557 14.015,5.658 13.955,5.718C13.707,6.023 13.596,6.474 13.683,6.877C13.694,6.926 13.705,6.984 13.753,7.003C13.903,7.094 14.069,7.146 14.236,7.183C14.318,7.03 14.396,6.872 14.46,6.707C14.496,6.736 14.533,6.763 14.57,6.79C14.612,6.809 14.654,6.828 14.696,6.846C14.59,7.245 14.484,7.646 14.38,8.046C14.294,8.027 14.208,8.02 14.121,8.028C14.152,7.846 14.175,7.663 14.174,7.477C14,7.44 13.833,7.365 13.657,7.341C13.513,7.411 13.415,7.564 13.34,7.713C13.191,8.028 13.139,8.412 13.251,8.752C13.416,8.839 13.588,8.906 13.766,8.949C13.862,8.809 13.909,8.63 14.003,8.494C14.082,8.523 14.151,8.577 14.228,8.612C14.128,9.018 14.011,9.42 13.914,9.827C13.825,9.812 13.735,9.809 13.645,9.81C13.679,9.631 13.7,9.449 13.704,9.265C13.53,9.212 13.355,9.164 13.182,9.11C12.868,9.338 12.71,9.772 12.717,10.181C12.727,10.3 12.725,10.434 12.792,10.532C12.942,10.63 13.113,10.69 13.284,10.724C13.393,10.593 13.45,10.421 13.517,10.261C13.596,10.31 13.677,10.356 13.761,10.395C13.661,10.781 13.56,11.166 13.455,11.55C13.365,11.528 13.273,11.517 13.181,11.523C13.214,11.346 13.233,11.165 13.245,10.983C13.074,10.934 12.905,10.87 12.731,10.837C12.62,10.869 12.545,10.984 12.475,11.08C12.291,11.384 12.195,11.779 12.283,12.14C12.295,12.186 12.303,12.241 12.348,12.261C12.496,12.354 12.664,12.401 12.828,12.446C12.914,12.295 12.993,12.139 13.054,11.973C13.135,12.029 13.22,12.078 13.309,12.112C13.216,12.45 13.135,12.791 13.037,13.126C12.964,13.383 12.934,13.698 13.099,13.92C13.312,14.206 13.648,14.363 13.807,14.703C13.895,14.88 13.891,15.088 13.886,15.284C13.871,16.333 13.605,30.379 13.581,31.465C13.569,31.7 13.614,31.957 13.495,32.168C13.393,32.386 13.195,32.554 12.969,32.559C12.628,32.57 12.314,32.39 12.016,32.227C11.374,31.849 10.703,31.531 10.009,31.295C10.046,31.293 10.119,31.288 10.156,31.285C10.145,31.198 10.078,31.149 10.022,31.1L9.982,31.101C9.989,31.045 9.996,30.99 10.004,30.934C10.026,30.936 10.072,30.941 10.094,30.943C10.212,30.857 10.33,30.771 10.447,30.683C10.401,30.625 10.348,30.574 10.278,30.559C10.014,30.479 9.745,30.418 9.473,30.377C9.402,30.361 9.332,30.384 9.267,30.416C9.368,30.561 9.43,30.75 9.577,30.848C9.57,30.896 9.563,30.943 9.556,30.99C9.516,30.999 9.476,31.007 9.436,31.017C9.416,31.017 9.376,31.019 9.356,31.02C9.353,31.041 9.348,31.083 9.345,31.104C9.382,31.129 9.419,31.153 9.456,31.177C9.039,31.141 8.613,31.133 8.206,31.26C7.524,31.46 6.913,31.963 6.555,32.645C6.285,33.157 6.163,33.75 6.128,34.339C6.076,35.301 6.236,36.259 6.463,37.183C6.635,37.847 6.839,38.501 7.084,39.135C7.392,39.886 7.613,40.689 7.683,41.514C7.769,42.415 7.666,43.333 7.411,44.192C7.233,44.815 6.957,45.395 6.716,45.989C6.204,47.189 5.671,48.379 5.235,49.617C4.736,51.049 4.335,52.553 4.307,54.1C4.279,55.313 4.515,56.542 5.044,57.607C5.549,58.641 6.295,59.508 7.134,60.214C7.505,60.517 7.928,60.732 8.36,60.905C9.131,61.211 9.938,61.383 10.746,61.508C11.904,61.684 13.072,61.752 14.24,61.777C14.461,61.779 14.683,61.792 14.905,61.777C14.842,61.804 14.77,61.828 14.774,61.921C15.052,61.898 15.331,61.902 15.609,61.918C15.61,61.83 15.544,61.802 15.484,61.774C16.158,61.798 16.832,61.772 17.506,61.75C18.933,61.681 20.374,61.559 21.749,61.098C22.387,60.877 23.017,60.576 23.534,60.092C24.293,59.373 24.953,58.508 25.407,57.513C25.761,56.739 25.981,55.889 26.06,55.024C26.197,53.521 25.944,52.009 25.541,50.579C25.101,49.033 24.496,47.554 23.848,46.105C23.642,45.673 23.515,45.202 23.363,44.744C23.123,43.965 22.921,43.156 22.92,42.325C22.909,41.368 23.147,40.435 23.448,39.548C23.686,38.888 23.933,38.231 24.121,37.55C24.418,36.465 24.63,35.324 24.53,34.184C24.467,33.415 24.221,32.639 23.73,32.08C23.515,31.819 23.192,31.665 22.873,31.713C22.516,31.769 22.174,32.004 21.995,32.359C21.744,32.806 21.62,33.318 21.476,33.815C21.289,34.436 21.025,35.032 20.662,35.548C20.524,35.738 20.389,35.935 20.209,36.078C19.781,36.455 19.256,36.759 18.697,36.725C18.224,36.702 17.791,36.387 17.534,35.952C17.319,35.588 17.172,35.164 17.147,34.726C17.146,33.792 17.122,32.859 17.111,31.925C17.114,31.363 17.104,30.801 17.095,30.239C17.065,29.088 16.762,15.859 16.764,15.245C16.705,14.237 16.837,13.223 17.09,12.255C17.245,11.652 17.462,11.072 17.656,10.483C17.898,9.738 18.086,8.95 18.043,8.149C18.023,7.646 17.899,7.149 17.693,6.7C17.615,6.512 17.473,6.336 17.492,6.114C17.541,5.59 17.937,5.242 18.122,4.783C18.304,4.359 18.349,3.851 18.197,3.407C18.038,2.931 17.727,2.504 17.303,2.305C16.967,2.14 16.571,2.127 16.232,2.286C16.029,2.384 15.897,2.597 15.802,2.811C15.751,2.796 15.701,2.78 15.651,2.764C15.608,2.772 15.565,2.78 15.522,2.786C15.553,2.603 15.573,2.419 15.581,2.232C15.417,2.185 15.253,2.134 15.089,2.086Z" style="fill:white;fill-rule:nonzero;"/>
                </g>
                <g transform="matrix(0.224213,0,0,0.222577,1.62032,18.2709)">
                    <path d="M13.684,40.412C13.684,39.994 14.024,39.654 14.443,39.654L15.96,39.654C16.378,39.654 16.718,39.994 16.718,40.412L16.718,50.819C16.718,51.238 16.378,51.577 15.96,51.577L14.443,51.577C14.024,51.577 13.684,51.238 13.684,50.819L13.684,40.412Z"/>
                </g>
                <g transform="matrix(0.224213,0,0,0.222577,1.62032,18.2709)">
                    <path d="M82.517,9.973C82.517,8.432 83.768,7.181 85.309,7.181L90.894,7.181C92.435,7.181 93.686,8.432 93.686,9.973L93.686,56.693C93.686,58.234 92.435,59.486 90.894,59.486L85.309,59.486C83.768,59.486 82.517,58.234 82.517,56.693L82.517,9.973Z" style="fill:rgb(255,250,118);"/>
                </g>
                <g transform="matrix(0.224213,0,0,0.222577,1.62032,18.2709)">
                    <path d="M67.379,9.973C67.379,8.432 68.63,7.181 70.171,7.181L75.755,7.181C77.296,7.181 78.548,8.432 78.548,9.973L78.548,56.693C78.548,58.234 77.296,59.486 75.755,59.486L70.171,59.486C68.63,59.486 67.379,58.234 67.379,56.693L67.379,9.973Z" style="fill:rgb(96,142,255);"/>
                </g>
                <g transform="matrix(0.224213,0,0,0.222577,1.62032,18.2709)">
                    <path d="M37.101,9.973C37.101,8.432 38.353,7.181 39.894,7.181L45.478,7.181C47.019,7.181 48.27,8.432 48.27,9.973L48.27,56.693C48.27,58.234 47.019,59.486 45.478,59.486L39.894,59.486C38.353,59.486 37.101,58.234 37.101,56.693L37.101,9.973Z" style="fill:rgb(255,96,96);"/>
                </g>
                <g transform="matrix(0.224213,0,0,0.222577,1.62032,18.2709)">
                    <path d="M52.24,9.973C52.24,8.432 53.491,7.181 55.032,7.181L60.617,7.181C62.158,7.181 63.409,8.432 63.409,9.973L63.409,56.693C63.409,58.234 62.158,59.486 60.617,59.486L55.032,59.486C53.491,59.486 52.24,58.234 52.24,56.693L52.24,9.973Z" style="fill:rgb(91,255,118);"/>
                </g>
            </g>
            <g transform="matrix(0.214429,0,0,0.214429,35.2478,1.13751)">
                <path d="M112.794,9.973C112.794,8.432 114.046,7.181 115.587,7.181L121.171,7.181C122.712,7.181 123.963,8.432 123.963,9.973L123.963,56.693C123.963,58.234 122.712,59.486 121.171,59.486L115.587,59.486C114.046,59.486 112.794,58.234 112.794,56.693L112.794,9.973Z" style="fill:rgb(90,251,255);"/>
            </g>
        </g>
    </g>
</svg>
