<?xml version="1.0" encoding="UTF-8" standalone="no"?>
<!DOCTYPE svg PUBLIC "-//W3C//DTD SVG 1.1//EN" "http://www.w3.org/Graphics/SVG/1.1/DTD/svg11.dtd">
<svg width="100%" height="100%" viewBox="0 0 32 16" version="1.1" xmlns="http://www.w3.org/2000/svg" xmlns:xlink="http://www.w3.org/1999/xlink" xml:space="preserve" xmlns:serif="http://www.serif.com/" style="fill-rule:evenodd;clip-rule:evenodd;stroke-linejoin:round;stroke-miterlimit:2;">
    <g transform="matrix(1,0,0,1,0,-100)">
        <g id="Gdgf_Bass_Six" transform="matrix(1,0,0,1,-33,100)">
            <rect x="33" y="0" width="32" height="16" style="fill:none;"/>
            <g id="Layer2" transform="matrix(0.956362,0,0,0.963394,33.6982,-16.4646)">
                <g transform="matrix(0.224213,0,0,0.15372,1.62032,18.7654)">
                    <path d="M97.656,9.973C97.656,8.432 98.907,7.181 100.448,7.181L106.032,7.181C107.574,7.181 108.825,8.432 108.825,9.973L108.825,56.693C108.825,58.234 107.574,59.486 106.032,59.486L100.448,59.486C98.907,59.486 97.656,58.234 97.656,56.693L97.656,9.973Z" style="fill:rgb(225,90,255);"/>
                </g>
                <g transform="matrix(0.224213,0,0,0.15372,1.62032,18.7654)">
                    <path d="M82.517,9.973C82.517,8.432 83.768,7.181 85.309,7.181L90.894,7.181C92.435,7.181 93.686,8.432 93.686,9.973L93.686,56.693C93.686,58.234 92.435,59.486 90.894,59.486L85.309,59.486C83.768,59.486 82.517,58.234 82.517,56.693L82.517,9.973Z" style="fill:rgb(255,250,118);"/>
                </g>
                <g transform="matrix(0.224213,0,0,0.15372,1.62032,18.7654)">
                    <path d="M67.379,9.973C67.379,8.432 68.63,7.181 70.171,7.181L75.755,7.181C77.296,7.181 78.548,8.432 78.548,9.973L78.548,56.693C78.548,58.234 77.296,59.486 75.755,59.486L70.171,59.486C68.63,59.486 67.379,58.234 67.379,56.693L67.379,9.973Z" style="fill:rgb(96,142,255);"/>
                </g>
                <g transform="matrix(0.224213,0,0,0.15372,1.62032,18.7654)">
                    <path d="M37.101,9.973C37.101,8.432 38.353,7.181 39.894,7.181L45.478,7.181C47.019,7.181 48.27,8.432 48.27,9.973L48.27,56.693C48.27,58.234 47.019,59.486 45.478,59.486L39.894,59.486C38.353,59.486 37.101,58.234 37.101,56.693L37.101,9.973Z" style="fill:rgb(255,96,96);"/>
                </g>
                <g transform="matrix(0.224213,0,0,0.15372,1.62032,18.7654)">
                    <path d="M52.24,9.973C52.24,8.432 53.491,7.181 55.032,7.181L60.617,7.181C62.158,7.181 63.409,8.432 63.409,9.973L63.409,56.693C63.409,58.234 62.158,59.486 60.617,59.486L55.032,59.486C53.491,59.486 52.24,58.234 52.24,56.693L52.24,9.973Z" style="fill:rgb(91,255,118);"/>
                </g>
                <g transform="matrix(0.911601,0,0,0.904947,-64.3299,-72.0436)">
                    <path d="M75.324,102.242C75.273,102.047 75.17,101.881 75.036,101.731C75.036,101.731 75.491,100.729 75.824,100.395C76.518,99.7 76.992,99.655 76.992,99.655C76.837,100.069 76.969,100.698 76.763,101.142C76.626,101.441 76.529,101.734 76.487,102.074L76.487,109.193C76.487,109.193 76.776,109.407 77.405,109.293C77.981,109.188 78.043,108.631 78.298,108.755C78.582,108.893 77.963,110.844 77.938,111.938C77.912,113.089 79.305,114.693 78.528,115.243C77.751,115.794 73.963,115.881 73.275,115.243C72.587,114.606 73.784,113.106 73.886,111.938C73.979,110.87 73.211,108.054 73.635,107.742C74.043,107.442 74.764,108.543 75.324,108.731L75.324,102.242Z" style="fill:white;"/>
                </g>
                <g transform="matrix(0.233151,0,0,0.231449,0.2624,17.8804)">
                    <path d="M18.226,44.091C18.226,43.672 18.566,43.332 18.985,43.332L20.502,43.332C20.92,43.332 21.26,43.672 21.26,44.091L21.26,54.498C21.26,54.916 20.92,55.256 20.502,55.256L18.985,55.256C18.566,55.256 18.226,54.916 18.226,54.498L18.226,44.091Z"/>
                </g>
                <g transform="matrix(1.08598,0,0,1.02411,-1.14174,-85.1708)">
                    <path d="M28.137,111.599C28.137,111.169 27.806,110.82 27.397,110.82L10.943,110.82C10.535,110.82 10.203,111.169 10.203,111.599L10.203,113.156C10.203,113.586 10.535,113.935 10.943,113.935L27.397,113.935C27.806,113.935 28.137,113.586 28.137,113.156L28.137,111.599Z" style="fill:white;"/>
                    <path d="M28.137,111.599C28.137,111.169 27.806,110.82 27.397,110.82L10.943,110.82C10.535,110.82 10.203,111.169 10.203,111.599L10.203,113.156C10.203,113.586 10.535,113.935 10.943,113.935L27.397,113.935C27.806,113.935 28.137,113.586 28.137,113.156L28.137,111.599ZM27.546,111.599L27.546,113.156C27.546,113.242 27.479,113.312 27.397,113.312L10.943,113.312C10.861,113.312 10.795,113.242 10.795,113.156L10.795,111.599C10.795,111.513 10.861,111.443 10.943,111.443C10.943,111.443 27.397,111.443 27.397,111.443C27.479,111.443 27.546,111.513 27.546,111.599Z" style="fill:rgb(154,0,255);"/>
                </g>
            </g>
            <g transform="matrix(0.214429,0,0,0.148093,35.2478,1.61387)">
                <path d="M112.794,9.973C112.794,8.432 114.046,7.181 115.587,7.181L121.171,7.181C122.712,7.181 123.963,8.432 123.963,9.973L123.963,56.693C123.963,58.234 122.712,59.486 121.171,59.486L115.587,59.486C114.046,59.486 112.794,58.234 112.794,56.693L112.794,9.973Z" style="fill:rgb(90,251,255);"/>
            </g>
        </g>
    </g>
</svg>
