<?xml version="1.0" encoding="UTF-8" standalone="no"?><!DOCTYPE svg PUBLIC "-//W3C//DTD SVG 1.1//EN" "http://www.w3.org/Graphics/SVG/1.1/DTD/svg11.dtd"><svg width="100%" height="100%" viewBox="0 0 32 16" version="1.1" xmlns="http://www.w3.org/2000/svg" xmlns:xlink="http://www.w3.org/1999/xlink" xml:space="preserve" xmlns:serif="http://www.serif.com/" style="fill-rule:evenodd;clip-rule:evenodd;stroke-linejoin:round;stroke-miterlimit:2;"><rect id="Gh_Bass" x="-0" y="0" width="32" height="16" style="fill:none;"/><g id="Guitar3"><path d="M6.983,8.807c0.267,0.13 -0.314,1.96 -0.337,2.987c-0.025,1.08 1.283,2.585 0.554,3.102c-0.73,0.517 -4.285,0.598 -4.93,-0c-0.645,-0.598 0.478,-2.006 0.573,-3.102c0.088,-1.002 -0.633,-3.645 -0.235,-3.937c0.429,-0.316 1.226,1.018 1.766,0.95l0,0.153l0.91,0.258c0,0 0.271,0.201 0.862,0.094c0.54,-0.098 0.598,-0.621 0.837,-0.505Z" style="fill:#fff;"/><path d="M4.374,10.582c0,-0.101 0.082,-0.182 0.182,-0.182l0.364,-0c0.101,-0 0.182,0.081 0.182,0.182l0,2.497c0,0.101 -0.081,0.182 -0.182,0.182l-0.364,0c-0.1,0 -0.182,-0.081 -0.182,-0.182l0,-2.497Z"/><path d="M4.224,2.967c0.005,-0.307 -0.118,-0.546 -0.301,-0.751c-0,0 0.427,-0.941 0.739,-1.253c0.652,-0.653 1.096,-0.695 1.096,-0.695c-0.145,0.389 -0.022,0.978 -0.214,1.396c-0.184,0.398 -0.29,0.785 -0.281,1.303l-1.039,0Z" style="fill:#fff;"/><rect x="4.192" y="1.872" width="1.092" height="7.996" style="fill:#fff;"/><path d="M27.364,2.573c0,-0.469 0.381,-0.85 0.85,-0.85l1.698,0c0.469,0 0.85,0.381 0.85,0.85l-0,11.061c-0,0.469 -0.381,0.849 -0.85,0.849l-1.698,0c-0.469,0 -0.85,-0.38 -0.85,-0.849l0,-11.061Z" style="fill:#ff955a;"/><path d="M22.749,2.573c0,-0.469 0.381,-0.85 0.85,-0.85l1.698,0c0.469,0 0.85,0.381 0.85,0.85l-0,11.061c-0,0.469 -0.381,0.849 -0.85,0.849l-1.698,0c-0.469,0 -0.85,-0.38 -0.85,-0.849l0,-11.061Z" style="fill:#608eff;"/><path d="M18.134,2.573c0,-0.469 0.381,-0.85 0.85,-0.85l1.698,0c0.469,0 0.85,0.381 0.85,0.85l-0,11.061c-0,0.469 -0.381,0.849 -0.85,0.849l-1.698,0c-0.469,0 -0.85,-0.38 -0.85,-0.849l0,-11.061Z" style="fill:#fffa76;"/><path d="M8.904,2.573c0,-0.469 0.381,-0.85 0.85,-0.85l1.698,0c0.469,0 0.85,0.381 0.85,0.85l-0,11.061c-0,0.469 -0.381,0.849 -0.85,0.849l-1.698,0c-0.469,0 -0.85,-0.38 -0.85,-0.849l0,-11.061Z" style="fill:#5bff76;"/><path d="M13.519,2.573c0,-0.469 0.381,-0.85 0.85,-0.85l1.698,0c0.469,0 0.85,0.381 0.85,0.85l-0,11.061c-0,0.469 -0.381,0.849 -0.85,0.849l-1.698,0c-0.469,0 -0.85,-0.38 -0.85,-0.849l0,-11.061Z" style="fill:#ff6060;"/></g></svg>