<?xml version="1.0" encoding="UTF-8" standalone="no"?><!DOCTYPE svg PUBLIC "-//W3C//DTD SVG 1.1//EN" "http://www.w3.org/Graphics/SVG/1.1/DTD/svg11.dtd"><svg width="100%" height="100%" viewBox="0 0 32 16" version="1.1" xmlns="http://www.w3.org/2000/svg" xmlns:xlink="http://www.w3.org/1999/xlink" xml:space="preserve" xmlns:serif="http://www.serif.com/" style="fill-rule:evenodd;clip-rule:evenodd;stroke-linejoin:round;stroke-miterlimit:2;"><rect id="Gh_Rhythm" x="0" y="0" width="32" height="16" style="fill:none;"/><g id="Gutiar5"><path d="M27.364,2.573c0,-0.469 0.381,-0.85 0.85,-0.85l1.698,0c0.469,0 0.85,0.381 0.85,0.85l-0,11.061c-0,0.469 -0.381,0.849 -0.85,0.849l-1.698,0c-0.469,0 -0.85,-0.38 -0.85,-0.849l0,-11.061Z" style="fill:#e15aff;"/><path d="M3.621,0.82l-0.011,-0c-0.093,0.073 -0.13,0.22 -0.094,0.339c0.04,0.021 0.081,0.037 0.124,0.048c0.021,-0.035 0.037,-0.073 0.054,-0.111c0.019,0.007 0.036,0.02 0.055,0.029c-0.027,0.095 -0.052,0.191 -0.077,0.287c-0.006,-0.002 -0.019,-0.006 -0.026,-0.008c-0.012,0.002 -0.023,0.002 -0.035,0.003c0.009,-0.044 0.014,-0.088 0.014,-0.132c-0.042,-0.012 -0.084,-0.024 -0.125,-0.036c-0.096,0.072 -0.135,0.221 -0.097,0.341c0.04,0.021 0.081,0.037 0.123,0.047c0.021,-0.036 0.04,-0.073 0.055,-0.113c0.018,0.012 0.036,0.023 0.055,0.032c-0.024,0.095 -0.049,0.189 -0.074,0.283c-0.008,-0.002 -0.023,-0.007 -0.03,-0.009c-0.011,0.002 -0.021,0.003 -0.032,0.004c0.007,-0.044 0.013,-0.088 0.014,-0.133c-0.038,-0.009 -0.075,-0.023 -0.113,-0.032c-0.022,-0.006 -0.037,0.018 -0.052,0.032c-0.059,0.074 -0.086,0.182 -0.065,0.279c0.003,0.011 0.005,0.025 0.017,0.03c0.036,0.022 0.076,0.034 0.116,0.043c0.019,-0.037 0.038,-0.074 0.053,-0.114c0.009,0.007 0.018,0.013 0.027,0.02c0.01,0.004 0.02,0.009 0.03,0.013c-0.026,0.096 -0.051,0.192 -0.076,0.288c-0.02,-0.005 -0.041,-0.006 -0.062,-0.004c0.007,-0.044 0.013,-0.088 0.013,-0.132c-0.042,-0.009 -0.082,-0.027 -0.124,-0.033c-0.035,0.017 -0.058,0.054 -0.077,0.089c-0.035,0.076 -0.048,0.168 -0.021,0.25c0.04,0.02 0.081,0.037 0.124,0.047c0.023,-0.034 0.034,-0.077 0.057,-0.109c0.019,0.007 0.035,0.02 0.054,0.028c-0.024,0.098 -0.052,0.194 -0.076,0.292c-0.021,-0.004 -0.043,-0.005 -0.064,-0.005c0.008,-0.042 0.013,-0.086 0.014,-0.13c-0.042,-0.013 -0.084,-0.024 -0.125,-0.038c-0.076,0.055 -0.114,0.159 -0.112,0.258c0.002,0.028 0.002,0.06 0.018,0.084c0.036,0.023 0.077,0.038 0.118,0.046c0.026,-0.032 0.04,-0.073 0.056,-0.111c0.019,0.012 0.039,0.023 0.059,0.032c-0.024,0.093 -0.049,0.185 -0.074,0.277c-0.021,-0.005 -0.043,-0.008 -0.066,-0.006c0.008,-0.043 0.013,-0.086 0.016,-0.13c-0.041,-0.012 -0.082,-0.027 -0.124,-0.035c-0.026,0.008 -0.044,0.035 -0.061,0.058c-0.044,0.073 -0.067,0.168 -0.046,0.255c0.003,0.011 0.005,0.024 0.015,0.029c0.036,0.022 0.076,0.033 0.116,0.044c0.02,-0.036 0.039,-0.074 0.054,-0.113c0.019,0.013 0.04,0.025 0.061,0.033c-0.022,0.081 -0.042,0.163 -0.065,0.243c-0.018,0.062 -0.025,0.138 0.015,0.191c0.051,0.068 0.132,0.106 0.17,0.188c0.021,0.042 0.02,0.092 0.019,0.139c-0.004,0.252 -0.068,3.623 -0.074,3.884c-0.002,0.056 0.008,0.118 -0.02,0.168c-0.025,0.053 -0.072,0.093 -0.126,0.094c-0.082,0.003 -0.158,-0.04 -0.229,-0.079c-0.154,-0.091 -0.315,-0.167 -0.482,-0.224c0.009,-0.001 0.027,-0.002 0.035,-0.003c-0.002,-0.02 -0.018,-0.032 -0.032,-0.044l-0.009,0c0.001,-0.013 0.003,-0.026 0.005,-0.04c0.005,0.001 0.016,0.002 0.022,0.002c0.028,-0.02 0.056,-0.041 0.084,-0.062c-0.011,-0.014 -0.024,-0.026 -0.04,-0.03c-0.064,-0.019 -0.128,-0.034 -0.193,-0.043c-0.018,-0.004 -0.034,0.001 -0.05,0.009c0.024,0.035 0.039,0.08 0.074,0.104c-0.001,0.011 -0.003,0.022 -0.005,0.034c-0.009,0.002 -0.019,0.004 -0.028,0.006c-0.005,0 -0.015,0.001 -0.019,0.001c-0.001,0.005 -0.003,0.015 -0.003,0.02c0.009,0.006 0.018,0.012 0.026,0.018c-0.1,-0.009 -0.202,-0.011 -0.299,0.019c-0.164,0.048 -0.311,0.169 -0.397,0.333c-0.065,0.123 -0.094,0.265 -0.102,0.406c-0.013,0.231 0.026,0.461 0.08,0.683c0.041,0.159 0.09,0.316 0.149,0.468c0.074,0.181 0.127,0.373 0.144,0.571c0.021,0.217 -0.004,0.437 -0.065,0.643c-0.043,0.15 -0.109,0.289 -0.167,0.432c-0.123,0.287 -0.251,0.573 -0.356,0.87c-0.119,0.344 -0.215,0.705 -0.222,1.076c-0.007,0.291 0.05,0.586 0.176,0.842c0.122,0.248 0.301,0.456 0.502,0.625c0.089,0.073 0.191,0.125 0.294,0.166c0.185,0.074 0.379,0.115 0.573,0.145c0.278,0.042 0.558,0.059 0.838,0.065c0.054,-0 0.107,0.003 0.16,-0c-0.015,0.006 -0.032,0.012 -0.031,0.034c0.067,-0.005 0.133,-0.004 0.2,-0.001c0,-0.021 -0.015,-0.027 -0.03,-0.034c0.162,0.006 0.324,-0.001 0.485,-0.006c0.343,-0.016 0.689,-0.046 1.019,-0.156c0.153,-0.053 0.304,-0.126 0.428,-0.242c0.182,-0.172 0.341,-0.38 0.45,-0.619c0.085,-0.186 0.137,-0.389 0.156,-0.597c0.033,-0.361 -0.027,-0.724 -0.124,-1.067c-0.106,-0.371 -0.251,-0.726 -0.406,-1.074c-0.05,-0.103 -0.08,-0.216 -0.117,-0.326c-0.057,-0.187 -0.106,-0.381 -0.106,-0.581c-0.003,-0.229 0.054,-0.454 0.126,-0.666c0.058,-0.159 0.117,-0.317 0.162,-0.48c0.071,-0.26 0.122,-0.534 0.098,-0.808c-0.015,-0.184 -0.074,-0.37 -0.192,-0.505c-0.051,-0.062 -0.129,-0.099 -0.205,-0.088c-0.086,0.014 -0.168,0.07 -0.211,0.155c-0.06,0.108 -0.09,0.231 -0.125,0.35c-0.045,0.149 -0.108,0.292 -0.195,0.416c-0.033,0.045 -0.066,0.092 -0.109,0.127c-0.103,0.09 -0.229,0.163 -0.363,0.155c-0.113,-0.005 -0.217,-0.081 -0.279,-0.185c-0.051,-0.088 -0.087,-0.19 -0.093,-0.295c0,-0.224 -0.006,-0.448 -0.008,-0.672c0,-0.135 -0.002,-0.27 -0.004,-0.405c-0.007,-0.276 -0.08,-3.451 -0.08,-3.598c-0.014,-0.242 0.018,-0.485 0.079,-0.718c0.037,-0.144 0.089,-0.284 0.136,-0.425c0.057,-0.179 0.103,-0.368 0.092,-0.56c-0.005,-0.121 -0.034,-0.24 -0.084,-0.348c-0.018,-0.045 -0.052,-0.087 -0.048,-0.14c0.012,-0.126 0.107,-0.21 0.151,-0.32c0.044,-0.102 0.055,-0.224 0.018,-0.33c-0.038,-0.114 -0.112,-0.217 -0.214,-0.265c-0.081,-0.039 -0.176,-0.042 -0.257,-0.004c-0.049,0.023 -0.081,0.074 -0.104,0.126c-0.012,-0.004 -0.024,-0.008 -0.036,-0.012c-0.01,0.002 -0.02,0.004 -0.031,0.006c0.008,-0.044 0.013,-0.088 0.015,-0.133c-0.04,-0.012 -0.079,-0.024 -0.119,-0.035Z" style="fill:#fff;fill-rule:nonzero;"/><path d="M3.284,10.018c0,-0.1 0.082,-0.182 0.182,-0.182l0.364,0c0.101,0 0.182,0.082 0.182,0.182l0,2.498c0,0.1 -0.081,0.182 -0.182,0.182l-0.364,-0c-0.1,-0 -0.182,-0.082 -0.182,-0.182l0,-2.498Z"/><path d="M22.749,2.573c0,-0.469 0.381,-0.85 0.85,-0.85l1.698,0c0.469,0 0.85,0.381 0.85,0.85l-0,11.061c-0,0.469 -0.381,0.849 -0.85,0.849l-1.698,0c-0.469,0 -0.85,-0.38 -0.85,-0.849l0,-11.061Z" style="fill:#fffa76;"/><path d="M18.134,2.573c0,-0.469 0.381,-0.85 0.85,-0.85l1.698,0c0.469,0 0.85,0.381 0.85,0.85l-0,11.061c-0,0.469 -0.381,0.849 -0.85,0.849l-1.698,0c-0.469,0 -0.85,-0.38 -0.85,-0.849l0,-11.061Z" style="fill:#608eff;"/><path d="M8.904,2.573c0,-0.469 0.381,-0.85 0.85,-0.85l1.698,0c0.469,0 0.85,0.381 0.85,0.85l-0,11.061c-0,0.469 -0.381,0.849 -0.85,0.849l-1.698,0c-0.469,0 -0.85,-0.38 -0.85,-0.849l0,-11.061Z" style="fill:#ff6060;"/><path d="M13.519,2.573c0,-0.469 0.381,-0.85 0.85,-0.85l1.698,0c0.469,0 0.85,0.381 0.85,0.85l-0,11.061c-0,0.469 -0.381,0.849 -0.85,0.849l-1.698,0c-0.469,0 -0.85,-0.38 -0.85,-0.849l0,-11.061Z" style="fill:#5bff76;"/></g></svg>