<?xml version="1.0" encoding="UTF-8" standalone="no"?><!DOCTYPE svg PUBLIC "-//W3C//DTD SVG 1.1//EN" "http://www.w3.org/Graphics/SVG/1.1/DTD/svg11.dtd"><svg width="100%" height="100%" viewBox="0 0 24 12" version="1.1" xmlns="http://www.w3.org/2000/svg" xmlns:xlink="http://www.w3.org/1999/xlink" xml:space="preserve" xmlns:serif="http://www.serif.com/" style="fill-rule:evenodd;clip-rule:evenodd;stroke-linejoin:round;stroke-miterlimit:2;"><rect id="Kb15_Single" x="0" y="0" width="24" height="12" style="fill:none;"/><g id="Layer2"><g><rect id="rect4136-0" x="1.599" y="4.336" width="2.115" height="3.101" style="fill:#fff;fill-opacity:0.94;"/><rect id="rect4136-5" x="3.937" y="4.336" width="2.115" height="3.101" style="fill:#fff;fill-opacity:0.94;"/><rect id="rect4136-8" x="6.275" y="4.336" width="2.115" height="3.101" style="fill:#fff;fill-opacity:0.94;"/><rect id="rect4136-81" serif:id="rect4136-8" x="8.528" y="4.336" width="2.115" height="3.101" style="fill:#fff;fill-opacity:0.94;"/><rect id="rect4136-01" serif:id="rect4136-0" x="2.349" y="0.486" width="2.115" height="3.101" style="fill:#fff;fill-opacity:0.94;"/><rect id="rect4136-51" serif:id="rect4136-5" x="4.687" y="0.486" width="2.115" height="3.101" style="fill:#fff;fill-opacity:0.94;"/><rect id="rect4136-82" serif:id="rect4136-8" x="7.025" y="0.486" width="2.115" height="3.101" style="fill:#fff;fill-opacity:0.94;"/></g><g><rect id="rect4136-02" serif:id="rect4136-0" x="20.285" y="4.336" width="2.115" height="3.101" style="fill:#fff;fill-opacity:0.94;"/><rect id="rect4136-52" serif:id="rect4136-5" x="17.947" y="4.336" width="2.115" height="3.101" style="fill:#fff;fill-opacity:0.94;"/><rect id="rect4136-83" serif:id="rect4136-8" x="15.609" y="4.336" width="2.115" height="3.101" style="fill:#fff;fill-opacity:0.94;"/><rect id="rect4136-84" serif:id="rect4136-8" x="13.357" y="4.336" width="2.115" height="3.101" style="fill:#fff;fill-opacity:0.94;"/><rect id="rect4136-03" serif:id="rect4136-0" x="19.535" y="0.486" width="2.115" height="3.101" style="fill:#fff;fill-opacity:0.94;"/><rect id="rect4136-53" serif:id="rect4136-5" x="17.197" y="0.486" width="2.115" height="3.101" style="fill:#fff;fill-opacity:0.94;"/><rect id="rect4136-85" serif:id="rect4136-8" x="14.859" y="0.486" width="2.115" height="3.101" style="fill:#fff;fill-opacity:0.94;"/><rect id="rect4136-86" serif:id="rect4136-8" x="12.607" y="0.486" width="2.115" height="3.101" style="fill:#fff;fill-opacity:0.12;"/></g><rect id="rect4136-54" serif:id="rect4136-5" x="2.168" y="8.634" width="19.664" height="2.926" style="fill:#fff;fill-opacity:0.94;"/></g></svg>