<?xml version="1.0" encoding="UTF-8" standalone="no"?><!DOCTYPE svg PUBLIC "-//W3C//DTD SVG 1.1//EN" "http://www.w3.org/Graphics/SVG/1.1/DTD/svg11.dtd"><svg width="100%" height="100%" viewBox="0 0 24 12" version="1.1" xmlns="http://www.w3.org/2000/svg" xmlns:xlink="http://www.w3.org/1999/xlink" xml:space="preserve" xmlns:serif="http://www.serif.com/" style="fill-rule:evenodd;clip-rule:evenodd;stroke-linejoin:round;stroke-miterlimit:2;"><rect id="Kb19_Single" x="0" y="0" width="24" height="12" style="fill:none;"/><g id="Layer2"><g><rect id="rect4136-0" x="9.273" y="4.326" width="1.964" height="2.879" style="fill:#fff;fill-opacity:0.94;"/><rect id="rect4136-5" x="7.102" y="4.326" width="1.964" height="2.879" style="fill:#fff;fill-opacity:0.94;"/><rect id="rect4136-8" x="4.931" y="4.326" width="1.964" height="2.879" style="fill:#fff;fill-opacity:0.94;"/><rect id="rect4136-81" serif:id="rect4136-8" x="2.839" y="4.326" width="1.964" height="2.879" style="fill:#fff;fill-opacity:0.94;"/><rect id="rect4136-82" serif:id="rect4136-8" x="0.75" y="4.326" width="1.964" height="2.879" style="fill:#fff;fill-opacity:0.94;"/><rect id="rect4136-01" serif:id="rect4136-0" x="8.577" y="0.75" width="1.964" height="2.879" style="fill:#fff;fill-opacity:0.94;"/><rect id="rect4136-51" serif:id="rect4136-5" x="6.406" y="0.75" width="1.964" height="2.879" style="fill:#fff;fill-opacity:0.94;"/><rect id="rect4136-83" serif:id="rect4136-8" x="4.235" y="0.75" width="1.964" height="2.879" style="fill:#fff;fill-opacity:0.94;"/><rect id="rect4136-84" serif:id="rect4136-8" x="2.143" y="0.75" width="1.964" height="2.879" style="fill:#fff;fill-opacity:0.94;"/><rect id="rect4136-02" serif:id="rect4136-0" x="12.95" y="4.326" width="1.964" height="2.879" style="fill:#fff;fill-opacity:0.94;"/><rect id="rect4136-52" serif:id="rect4136-5" x="15.121" y="4.326" width="1.964" height="2.879" style="fill:#fff;fill-opacity:0.94;"/><rect id="rect4136-85" serif:id="rect4136-8" x="17.292" y="4.326" width="1.964" height="2.879" style="fill:#fff;fill-opacity:0.94;"/><rect id="rect4136-86" serif:id="rect4136-8" x="19.384" y="4.326" width="1.964" height="2.879" style="fill:#fff;fill-opacity:0.94;"/><rect id="rect4136-87" serif:id="rect4136-8" x="21.473" y="4.326" width="1.964" height="2.879" style="fill:#fff;fill-opacity:0.94;"/><rect id="rect4136-03" serif:id="rect4136-0" x="13.646" y="0.75" width="1.964" height="2.879" style="fill:#fff;fill-opacity:0.94;"/><rect id="rect4136-53" serif:id="rect4136-5" x="15.818" y="0.75" width="1.964" height="2.879" style="fill:#fff;fill-opacity:0.94;"/><rect id="rect4136-88" serif:id="rect4136-8" x="17.989" y="0.75" width="1.964" height="2.879" style="fill:#fff;fill-opacity:0.94;"/><rect id="rect4136-89" serif:id="rect4136-8" x="20.08" y="0.75" width="1.964" height="2.879" style="fill:#fff;fill-opacity:0.94;"/></g><rect id="rect4136-54" serif:id="rect4136-5" x="2.168" y="8.634" width="19.664" height="2.926" style="fill:#fff;fill-opacity:0.94;"/></g></svg>