<?xml version="1.0" encoding="UTF-8" standalone="no"?><!DOCTYPE svg PUBLIC "-//W3C//DTD SVG 1.1//EN" "http://www.w3.org/Graphics/SVG/1.1/DTD/svg11.dtd"><svg width="100%" height="100%" viewBox="0 0 32 16" version="1.1" xmlns="http://www.w3.org/2000/svg" xmlns:xlink="http://www.w3.org/1999/xlink" xml:space="preserve" xmlns:serif="http://www.serif.com/" style="fill-rule:evenodd;clip-rule:evenodd;stroke-linejoin:round;stroke-miterlimit:2;"><rect id="Kickbox_Quadarm" x="0" y="0" width="32" height="16" style="fill:none;"/><path d="M5.084,10.404l0,-3.989l0.452,-0l0,3.989l2.238,-0l-0,-3.989l0.452,-0l0,3.989l2.238,-0l-0,-3.989l0.452,-0l-0,3.989l0.578,-0l1.885,-1.886l0,-3.77l-1.885,-1.885l-6.988,-0l-1.885,1.885l-0,5.656l2.463,-0Z" style="fill:#fff;fill-opacity:0.94;"/><path d="M8,13.137l-3.725,0l-1.654,-1.654l-0,-0.891l5.379,0l-0,2.545Z" style="fill:#fff;fill-opacity:0.94;"/><path d="M5.084,10.404l0,-3.989l0.452,-0l0,3.989l2.238,-0l-0,-3.989l0.452,-0l0,3.989l2.238,-0l-0,-3.989l0.452,-0l-0,3.989l0.578,-0l1.885,-1.886l0,-3.77l-1.885,-1.885l-6.988,-0l-1.885,1.885l-0,5.656l2.463,-0Z" style="fill:#fff;fill-opacity:0.94;"/><path d="M8,13.137l-3.725,0l-1.654,-1.654l-0,-0.891l5.379,0l-0,2.545Z" style="fill:#fff;fill-opacity:0.94;"/><path d="M28.161,12.309l0,-1.654l-3.791,-0l0,-1.593l3.359,-5.371l2.198,-0l-0,5.519l1.087,0l-0,1.445l-1.087,-0l-0,1.654l-1.766,0Zm-2.309,-3.099l2.309,0l0,-3.605l-0.123,-0l-2.186,3.605Z" style="fill:#fff;fill-rule:nonzero;"/></svg>