<?xml version="1.0" encoding="UTF-8" standalone="no"?><!DOCTYPE svg PUBLIC "-//W3C//DTD SVG 1.1//EN" "http://www.w3.org/Graphics/SVG/1.1/DTD/svg11.dtd"><svg width="100%" height="100%" viewBox="0 0 32 16" version="1.1" xmlns="http://www.w3.org/2000/svg" xmlns:xlink="http://www.w3.org/1999/xlink" xml:space="preserve" xmlns:serif="http://www.serif.com/" style="fill-rule:evenodd;clip-rule:evenodd;stroke-linejoin:round;stroke-miterlimit:2;"><rect id="Kickbox_Arachnid" x="0" y="0" width="32" height="16" style="fill:none;"/><path d="M5.084,10.404l0,-3.989l0.452,-0l0,3.989l2.238,-0l-0,-3.989l0.452,-0l0,3.989l2.238,-0l-0,-3.989l0.452,-0l-0,3.989l0.578,-0l1.885,-1.886l0,-3.77l-1.885,-1.885l-6.988,-0l-1.885,1.885l-0,5.656l2.463,-0Z" style="fill:#fff;fill-opacity:0.94;"/><path d="M8,13.137l-3.725,0l-1.654,-1.654l-0,-0.891l5.379,0l-0,2.545Z" style="fill:#fff;fill-opacity:0.94;"/><path d="M19.417,10.125c-0.854,-2.7 1.81,-3.232 1.614,-5.09c-0.206,-1.948 -1.163,-2.023 -1.797,-2.139c-0.634,-0.115 -1.508,0.058 -1.955,0.636c-3.857,4.98 2.118,12.341 3.412,8.568c0.203,-0.594 -1.008,-1.132 -1.274,-1.975Z" style="fill:#fff;"/><path d="M26.729,12.458c-0.511,-0 -0.965,-0.064 -1.365,-0.192c-0.399,-0.127 -0.734,-0.302 -1.006,-0.525c-0.272,-0.222 -0.479,-0.485 -0.623,-0.79c-0.145,-0.304 -0.217,-0.638 -0.217,-1c0,-0.552 0.153,-1.002 0.457,-1.352c0.305,-0.35 0.716,-0.595 1.235,-0.735l0,-0.099c-0.42,-0.156 -0.763,-0.395 -1.031,-0.716c-0.267,-0.321 -0.401,-0.732 -0.401,-1.235c-0,-0.329 0.064,-0.633 0.191,-0.913c0.128,-0.28 0.317,-0.521 0.568,-0.723c0.251,-0.201 0.56,-0.358 0.926,-0.469c0.367,-0.111 0.788,-0.167 1.266,-0.167c0.477,0 0.899,0.056 1.266,0.167c0.366,0.111 0.675,0.268 0.926,0.469c0.251,0.202 0.44,0.443 0.568,0.723c0.127,0.28 0.191,0.584 0.191,0.913c0,0.503 -0.134,0.914 -0.401,1.235c-0.268,0.321 -0.612,0.56 -1.031,0.716l-0,0.099c0.518,0.14 0.93,0.385 1.234,0.735c0.305,0.35 0.457,0.8 0.457,1.352c0,0.362 -0.072,0.696 -0.216,1c-0.144,0.305 -0.352,0.568 -0.623,0.79c-0.272,0.223 -0.607,0.398 -1.007,0.525c-0.399,0.128 -0.854,0.192 -1.364,0.192Zm-0,-1.42c0.411,-0 0.726,-0.097 0.944,-0.291c0.219,-0.193 0.328,-0.463 0.328,-0.808l-0,-0.247c-0,-0.346 -0.109,-0.616 -0.328,-0.809c-0.218,-0.194 -0.533,-0.29 -0.944,-0.29c-0.412,-0 -0.727,0.096 -0.945,0.29c-0.218,0.193 -0.327,0.463 -0.327,0.809l0,0.247c0,0.345 0.109,0.615 0.327,0.808c0.218,0.194 0.533,0.291 0.945,0.291Zm-0,-3.804c0.395,0 0.695,-0.092 0.901,-0.277c0.206,-0.186 0.309,-0.439 0.309,-0.76l-0,-0.197c-0,-0.321 -0.103,-0.575 -0.309,-0.76c-0.206,-0.185 -0.506,-0.278 -0.901,-0.278c-0.395,0 -0.696,0.093 -0.902,0.278c-0.205,0.185 -0.308,0.439 -0.308,0.76l-0,0.197c-0,0.321 0.103,0.574 0.308,0.76c0.206,0.185 0.507,0.277 0.902,0.277Z" style="fill:#fff;fill-rule:nonzero;"/></svg>