<?xml version="1.0" encoding="UTF-8" standalone="no"?><!DOCTYPE svg PUBLIC "-//W3C//DTD SVG 1.1//EN" "http://www.w3.org/Graphics/SVG/1.1/DTD/svg11.dtd"><svg width="100%" height="100%" viewBox="0 0 32 16" version="1.1" xmlns="http://www.w3.org/2000/svg" xmlns:xlink="http://www.w3.org/1999/xlink" xml:space="preserve" xmlns:serif="http://www.serif.com/" style="fill-rule:evenodd;clip-rule:evenodd;stroke-linejoin:round;stroke-miterlimit:2;"><rect id="Maniax_Double" x="0" y="0" width="32" height="16" style="fill:none;"/><g id="Layer2"><path d="M6.843,8.552l-5.871,0c0.135,1.189 0.685,2.081 1.342,2.081l3.186,-0c0.657,-0 1.207,-0.892 1.343,-2.081Zm-5.872,-1.14l5.872,-0c-0.135,-1.191 -0.686,-2.083 -1.343,-2.083l-3.186,0c-0.657,0 -1.207,0.892 -1.343,2.083Z" style="fill:#fff;"/><path d="M15.5,8.716l-8.039,-0c0.185,1.517 0.938,2.654 1.838,2.654l4.362,0c0.9,0 1.653,-1.137 1.839,-2.654Zm-8.04,-1.456l8.04,0c-0.185,-1.519 -0.938,-2.657 -1.839,-2.657l-4.362,-0c-0.9,-0 -1.654,1.138 -1.839,2.657Z" style="fill:#fff;"/><path d="M25.157,8.552l5.871,0c-0.135,1.189 -0.685,2.081 -1.342,2.081l-3.186,-0c-0.657,-0 -1.207,-0.892 -1.343,-2.081Zm5.872,-1.14l-5.872,-0c0.135,-1.191 0.686,-2.083 1.343,-2.083l3.186,0c0.657,0 1.207,0.892 1.343,2.083Z" style="fill:#fff;"/><path d="M16.5,8.716l8.039,-0c-0.185,1.517 -0.938,2.654 -1.838,2.654l-4.362,0c-0.9,0 -1.653,-1.137 -1.839,-2.654Zm8.04,-1.456l-8.04,0c0.185,-1.519 0.938,-2.657 1.839,-2.657l4.362,-0c0.9,-0 1.654,1.138 1.839,2.657Z" style="fill:#fff;"/></g></svg>