<?xml version="1.0" encoding="UTF-8" standalone="no"?><!DOCTYPE svg PUBLIC "-//W3C//DTD SVG 1.1//EN" "http://www.w3.org/Graphics/SVG/1.1/DTD/svg11.dtd"><svg width="100%" height="100%" viewBox="0 0 32 16" version="1.1" xmlns="http://www.w3.org/2000/svg" xmlns:xlink="http://www.w3.org/1999/xlink" xml:space="preserve" xmlns:serif="http://www.serif.com/" style="fill-rule:evenodd;clip-rule:evenodd;stroke-linejoin:round;stroke-miterlimit:2;"><rect id="Maniax_Single" x="0" y="0" width="32" height="16" style="fill:none;"/><g id="Layer2"><path d="M13.496,8.804l-12.527,-0c0.289,1.64 1.463,2.869 2.865,2.869l6.797,0c1.402,0 2.576,-1.229 2.865,-2.869Zm-12.527,-1.574l12.527,0c-0.288,-1.642 -1.462,-2.872 -2.865,-2.872l-6.797,-0c-1.403,-0 -2.577,1.23 -2.865,2.872Z" style="fill:#fff;"/><path d="M31.031,8.923l-14.414,-0c0.333,1.887 1.683,3.301 3.296,3.301l7.822,0c1.613,0 2.963,-1.414 3.296,-3.301Zm-14.414,-1.811l14.414,0c-0.332,-1.889 -1.682,-3.305 -3.296,-3.305l-7.822,-0c-1.614,-0 -2.964,1.416 -3.296,3.305Z" style="fill:#fff;"/></g></svg>