<?xml version="1.0" encoding="UTF-8" standalone="no"?><!DOCTYPE svg PUBLIC "-//W3C//DTD SVG 1.1//EN" "http://www.w3.org/Graphics/SVG/1.1/DTD/svg11.dtd"><svg width="100%" height="100%" viewBox="0 0 32 16" version="1.1" xmlns="http://www.w3.org/2000/svg" xmlns:xlink="http://www.w3.org/1999/xlink" xml:space="preserve" xmlns:serif="http://www.serif.com/" style="fill-rule:evenodd;clip-rule:evenodd;stroke-linejoin:round;stroke-miterlimit:2;"><rect id="Para_Single" x="0" y="0" width="32" height="16" style="fill:none;"/><path d="M4.338,7.168l1.424,1.424l-0.699,1.003l0.699,1.002l-1.424,1.425l-3.741,-2.427l3.741,-2.427Z" style="fill:#fff;"/><path d="M12.271,7.802l-0.522,1.945l-1.217,-0.104l-0.519,1.107l-1.946,-0.522l0.232,-4.453l3.972,2.027Z" style="fill:#fff;"/><path d="M18.427,7.719l-1.424,1.424l-1.003,-0.698l-1.003,0.698l-1.424,-1.424l2.427,-3.741l2.427,3.741Z" style="fill:#fff;"/><path d="M23.933,10.228l-1.946,0.522l-0.519,-1.107l-1.217,0.104l-0.522,-1.945l3.972,-2.027l0.232,4.453Z" style="fill:#fff;"/><path d="M27.662,7.168l-1.424,1.424l0.699,1.003l-0.699,1.002l1.424,1.425l3.741,-2.427l-3.741,-2.427Z" style="fill:#fff;"/></svg>