<?xml version="1.0" encoding="UTF-8" standalone="no"?><!DOCTYPE svg PUBLIC "-//W3C//DTD SVG 1.1//EN" "http://www.w3.org/Graphics/SVG/1.1/DTD/svg11.dtd"><svg width="100%" height="100%" viewBox="0 0 32 16" version="1.1" xmlns="http://www.w3.org/2000/svg" xmlns:xlink="http://www.w3.org/1999/xlink" xml:space="preserve" xmlns:serif="http://www.serif.com/" style="fill-rule:evenodd;clip-rule:evenodd;stroke-linejoin:round;stroke-miterlimit:2;"><rect id="Para_Eight" x="0" y="0" width="32" height="16" style="fill:none;"/><g id="Para_Single"><path d="M10.381,6.417l0.931,0.93l-0.457,0.655l0.457,0.655l-0.931,0.93l-2.444,-1.585l2.444,-1.585Z" style="fill:#fff;"/><path d="M13.564,4.023l-0.341,1.271l-0.795,-0.068l-0.339,0.723l-1.272,-0.341l0.152,-2.909l2.595,1.324Z" style="fill:#fff;"/><path d="M17.585,2.969l-0.93,0.93l-0.655,-0.456l-0.655,0.456l-0.93,-0.93l1.585,-2.444l1.585,2.444Z" style="fill:#fff;"/><path d="M21.183,5.608l-1.272,0.341l-0.339,-0.723l-0.795,0.068l-0.341,-1.271l2.595,-1.324l0.152,2.909Z" style="fill:#fff;"/><path d="M13.564,11.977l-0.341,-1.271l-0.795,0.068l-0.339,-0.723l-1.272,0.341l0.152,2.909l2.595,-1.324Z" style="fill:#fff;"/><path d="M17.585,13.031l-0.93,-0.93l-0.655,0.456l-0.655,-0.456l-0.93,0.93l1.585,2.444l1.585,-2.444Z" style="fill:#fff;"/><path d="M21.183,10.392l-1.272,-0.341l-0.339,0.723l-0.795,-0.068l-0.341,1.271l2.595,1.324l0.152,-2.909Z" style="fill:#fff;"/><path d="M21.619,6.417l-0.931,0.93l0.457,0.655l-0.457,0.655l0.931,0.93l2.444,-1.585l-2.444,-1.585Z" style="fill:#fff;"/></g></svg>