<?xml version="1.0" encoding="UTF-8" standalone="no"?><!DOCTYPE svg PUBLIC "-//W3C//DTD SVG 1.1//EN" "http://www.w3.org/Graphics/SVG/1.1/DTD/svg11.dtd"><svg width="100%" height="100%" viewBox="0 0 32 16" version="1.1" xmlns="http://www.w3.org/2000/svg" xmlns:xlink="http://www.w3.org/1999/xlink" xml:space="preserve" xmlns:serif="http://www.serif.com/" style="fill-rule:evenodd;clip-rule:evenodd;stroke-linejoin:round;stroke-miterlimit:2;"><rect id="Para_Double" x="0" y="0" width="32" height="16" style="fill:none;"/><g id="Para_Single"><path d="M4.18,3.726l1.172,1.172l-0.575,0.825l0.575,0.825l-1.172,1.172l-3.078,-1.997l3.078,-1.997Z" style="fill:#fff;"/><path d="M10.707,4.247l-0.429,1.601l-1.002,-0.085l-0.427,0.91l-1.601,-0.429l0.191,-3.664l3.268,1.667Z" style="fill:#fff;"/><path d="M15.772,4.18l-1.172,1.172l-0.825,-0.575l-0.825,0.575l-1.171,-1.172l1.996,-3.078l1.997,3.078Z" style="fill:#fff;"/><path d="M20.303,6.244l-1.601,0.429l-0.427,-0.91l-1.002,0.085l-0.429,-1.601l3.268,-1.667l0.191,3.664Z" style="fill:#fff;"/><path d="M23.371,3.726l-1.172,1.172l0.575,0.825l-0.575,0.825l1.172,1.172l3.078,-1.997l-3.078,-1.997Z" style="fill:#fff;"/><path d="M8.349,10.624l1.172,1.172l-0.575,0.825l0.575,0.825l-1.172,1.172l-3.078,-1.997l3.078,-1.997Z" style="fill:#fff;"/><path d="M14.876,11.146l-0.429,1.601l-1.002,-0.086l-0.427,0.91l-1.601,-0.428l0.191,-3.664l3.268,1.667Z" style="fill:#fff;"/><path d="M19.941,11.078l-1.172,1.172l-0.825,-0.575l-0.825,0.575l-1.171,-1.172l1.996,-3.078l1.997,3.078Z" style="fill:#fff;"/><path d="M24.472,13.143l-1.601,0.428l-0.427,-0.91l-1.002,0.086l-0.429,-1.601l3.268,-1.667l0.191,3.664Z" style="fill:#fff;"/><path d="M27.54,10.624l-1.172,1.172l0.575,0.825l-0.575,0.825l1.172,1.172l3.078,-1.997l-3.078,-1.997Z" style="fill:#fff;"/></g></svg>