<?xml version="1.0" encoding="UTF-8" standalone="no"?><!DOCTYPE svg PUBLIC "-//W3C//DTD SVG 1.1//EN" "http://www.w3.org/Graphics/SVG/1.1/DTD/svg11.dtd"><svg width="100%" height="100%" viewBox="0 0 32 16" version="1.1" xmlns="http://www.w3.org/2000/svg" xmlns:xlink="http://www.w3.org/1999/xlink" xml:space="preserve" xmlns:serif="http://www.serif.com/" style="fill-rule:evenodd;clip-rule:evenodd;stroke-linejoin:round;stroke-miterlimit:2;"><rect id="Pnm_Nine_Double" x="0" y="0" width="32" height="16" style="fill:none;"/><g id="Layer1"><ellipse cx="3.522" cy="2.775" rx="1.193" ry="1.186" style="fill:#fff3cf;"/><ellipse cx="6.558" cy="2.775" rx="1.193" ry="1.186" style="fill:#cfd5ff;"/><ellipse cx="9.593" cy="2.775" rx="1.193" ry="1.186" style="fill:#cfd5ff;"/><ellipse cx="12.629" cy="2.775" rx="1.193" ry="1.186" style="fill:#fff3cf;"/><ellipse cx="1.92" cy="5.539" rx="1.193" ry="1.186" style="fill:#fff;"/><ellipse cx="4.998" cy="5.539" rx="1.193" ry="1.186" style="fill:#d1ffcf;"/><ellipse cx="8.075" cy="5.539" rx="1.193" ry="1.186" style="fill:#ffcfcf;"/><ellipse cx="11.153" cy="5.539" rx="1.193" ry="1.186" style="fill:#d1ffcf;"/><ellipse cx="14.231" cy="5.539" rx="1.193" ry="1.186" style="fill:#fff;"/></g><g id="Layer2"><ellipse cx="19.371" cy="2.775" rx="1.193" ry="1.186" style="fill:#fff3cf;"/><ellipse cx="22.407" cy="2.775" rx="1.193" ry="1.186" style="fill:#cfd5ff;"/><ellipse cx="25.442" cy="2.775" rx="1.193" ry="1.186" style="fill:#cfd5ff;"/><ellipse cx="28.478" cy="2.775" rx="1.193" ry="1.186" style="fill:#fff3cf;"/><ellipse cx="17.769" cy="5.539" rx="1.193" ry="1.186" style="fill:#fff;"/><ellipse cx="20.847" cy="5.539" rx="1.193" ry="1.186" style="fill:#d1ffcf;"/><ellipse cx="23.925" cy="5.539" rx="1.193" ry="1.186" style="fill:#ffcfcf;"/><ellipse cx="27.002" cy="5.539" rx="1.193" ry="1.186" style="fill:#d1ffcf;"/><ellipse cx="30.08" cy="5.539" rx="1.193" ry="1.186" style="fill:#fff;"/></g><g id="Layer3"><path d="M9.279,14.303l-0,-1.088l1.691,-0l-0,-4.21l-0.081,-0l-1.278,1.673l-0.863,-0.675l1.502,-1.979l2.069,0l-0,5.191l1.331,-0l0,1.088l-4.371,-0Z" style="fill:#fff;fill-rule:nonzero;"/><path d="M15.818,14.411c-0.372,-0 -0.703,-0.047 -0.994,-0.139c-0.291,-0.093 -0.535,-0.221 -0.733,-0.383c-0.198,-0.162 -0.349,-0.354 -0.454,-0.575c-0.105,-0.222 -0.158,-0.465 -0.158,-0.729c0,-0.402 0.111,-0.73 0.333,-0.985c0.222,-0.255 0.522,-0.433 0.9,-0.535l-0,-0.072c-0.306,-0.114 -0.557,-0.288 -0.752,-0.522c-0.194,-0.234 -0.292,-0.534 -0.292,-0.899c0,-0.24 0.047,-0.462 0.14,-0.666c0.093,-0.204 0.23,-0.379 0.413,-0.526c0.183,-0.147 0.408,-0.261 0.675,-0.342c0.267,-0.081 0.574,-0.122 0.922,-0.122c0.348,0 0.655,0.041 0.922,0.122c0.267,0.081 0.492,0.195 0.675,0.342c0.183,0.147 0.32,0.322 0.413,0.526c0.093,0.204 0.14,0.426 0.14,0.666c-0,0.365 -0.098,0.665 -0.293,0.899c-0.194,0.234 -0.445,0.408 -0.751,0.522l0,0.072c0.378,0.102 0.678,0.28 0.9,0.535c0.222,0.255 0.333,0.583 0.333,0.985c-0,0.264 -0.053,0.507 -0.158,0.729c-0.105,0.221 -0.256,0.413 -0.454,0.575c-0.198,0.162 -0.442,0.29 -0.733,0.383c-0.291,0.092 -0.622,0.139 -0.994,0.139Zm-0,-1.034c0.3,-0 0.529,-0.071 0.688,-0.212c0.159,-0.141 0.238,-0.337 0.238,-0.589l0,-0.18c0,-0.252 -0.079,-0.448 -0.238,-0.589c-0.159,-0.141 -0.388,-0.212 -0.688,-0.212c-0.3,0 -0.529,0.071 -0.688,0.212c-0.159,0.141 -0.239,0.337 -0.239,0.589l0,0.18c0,0.252 0.08,0.448 0.239,0.589c0.159,0.141 0.388,0.212 0.688,0.212Zm-0,-2.771c0.288,0 0.507,-0.067 0.657,-0.202c0.15,-0.135 0.224,-0.32 0.224,-0.554l0,-0.143c0,-0.234 -0.074,-0.419 -0.224,-0.554c-0.15,-0.135 -0.369,-0.202 -0.657,-0.202c-0.288,-0 -0.507,0.067 -0.657,0.202c-0.15,0.135 -0.225,0.32 -0.225,0.554l0,0.143c0,0.234 0.075,0.419 0.225,0.554c0.15,0.135 0.369,0.202 0.657,0.202Z" style="fill:#fff;fill-rule:nonzero;"/><path d="M19.044,7.916l2.456,0c0.492,0 0.877,0.14 1.156,0.418c0.279,0.278 0.418,0.666 0.418,1.163c0,0.215 -0.028,0.403 -0.085,0.565c-0.057,0.162 -0.131,0.296 -0.221,0.404c-0.09,0.108 -0.193,0.195 -0.31,0.26c-0.117,0.066 -0.232,0.111 -0.346,0.135l-0,0.036c0.144,0.018 0.288,0.062 0.431,0.131c0.144,0.069 0.273,0.165 0.387,0.288c0.114,0.123 0.207,0.277 0.279,0.46c0.072,0.183 0.108,0.398 0.108,0.644c0,0.258 -0.037,0.496 -0.112,0.712c-0.075,0.216 -0.183,0.404 -0.324,0.563c-0.141,0.159 -0.309,0.282 -0.504,0.369c-0.195,0.088 -0.412,0.131 -0.652,0.131l-2.681,0l0,-6.279Zm0.54,5.802l1.997,0c0.378,0 0.666,-0.103 0.863,-0.31c0.198,-0.207 0.297,-0.475 0.297,-0.805l0,-0.333c0,-0.324 -0.099,-0.589 -0.297,-0.796c-0.197,-0.207 -0.485,-0.31 -0.863,-0.31l-1.997,-0l0,2.554Zm0,-3.031l1.862,-0c0.342,-0 0.603,-0.091 0.783,-0.273c0.18,-0.183 0.269,-0.417 0.269,-0.704l0,-0.34c0,-0.287 -0.089,-0.521 -0.269,-0.703c-0.18,-0.183 -0.441,-0.274 -0.783,-0.274l-1.862,0l0,2.294Z" style="fill:#fff;fill-rule:nonzero;"/></g></svg>