<?xml version="1.0" encoding="UTF-8" standalone="no"?><!DOCTYPE svg PUBLIC "-//W3C//DTD SVG 1.1//EN" "http://www.w3.org/Graphics/SVG/1.1/DTD/svg11.dtd"><svg width="100%" height="100%" viewBox="0 0 32 16" version="1.1" xmlns="http://www.w3.org/2000/svg" xmlns:xlink="http://www.w3.org/1999/xlink" xml:space="preserve" xmlns:serif="http://www.serif.com/" style="fill-rule:evenodd;clip-rule:evenodd;stroke-linejoin:round;stroke-miterlimit:2;"><rect id="Rbdrums_Pro" x="0" y="0" width="32" height="16" style="fill:none;"/><g id="Gddm_New"><path d="M6.794,1.023l-1.551,4.876c3.162,0.917 5.568,-0.009 7.869,-1.422l-3.433,-3.862l-2.885,0.408Z" style="fill:#fff;"/><circle cx="9.177" cy="12.802" r="2.583" style="fill:#fff;"/><circle cx="24.745" cy="12.802" r="2.583" style="fill:#fff;"/><circle cx="14.045" cy="8.848" r="2.583" style="fill:#fff;"/><circle cx="19.878" cy="8.848" r="2.583" style="fill:#fff;"/><path d="M2.214,8.673l0.647,4.129c2.645,-0.484 4.065,-2.038 5.23,-3.911l-3.917,-1.569l-1.96,1.351Z" style="fill:#fff;"/><path d="M29.786,2.745l-0,5.908c-4.617,0.003 -5.513,-1.25 -8.369,-4.413l5.52,-2.949l2.849,1.454Z" style="fill:#fff;"/></g></svg>