<?xml version="1.0" encoding="UTF-8" standalone="no"?><!DOCTYPE svg PUBLIC "-//W3C//DTD SVG 1.1//EN" "http://www.w3.org/Graphics/SVG/1.1/DTD/svg11.dtd"><svg width="100%" height="100%" viewBox="0 0 32 16" version="1.1" xmlns="http://www.w3.org/2000/svg" xmlns:xlink="http://www.w3.org/1999/xlink" xml:space="preserve" xmlns:serif="http://www.serif.com/" style="fill-rule:evenodd;clip-rule:evenodd;stroke-linejoin:round;stroke-miterlimit:2;"><rect id="Taiko" x="0" y="0" width="32" height="16" style="fill:none;"/><g id="Layer2"></g><path d="M15,0.586l0,1.011c-3.102,0.481 -5.48,3.167 -5.48,6.403c0,3.236 2.378,5.922 5.48,6.403l0,1.011c-3.656,-0.49 -6.48,-3.625 -6.48,-7.414c0,-3.789 2.824,-6.924 6.48,-7.414Zm2,0c3.656,0.49 6.48,3.625 6.48,7.414c-0,3.789 -2.824,6.924 -6.48,7.414l0,-1.011c3.102,-0.481 5.48,-3.167 5.48,-6.403c-0,-3.236 -2.378,-5.922 -5.48,-6.403l0,-1.011Z" style="fill:#ecfaff;"/><path d="M15,2.295l0,11.41c-2.832,-0.357 -5.026,-2.777 -5.026,-5.705c0,-2.928 2.194,-5.348 5.026,-5.705Z" style="fill:#ffdfdf;"/><path d="M17,2.295c2.832,0.357 5.026,2.777 5.026,5.705c-0,2.928 -2.194,5.348 -5.026,5.705l0,-11.41Z" style="fill:#ffdfdf;"/><path d="M3.864,3.111c-0.062,-0.23 -0.298,-0.367 -0.528,-0.305l-0.833,0.223c-0.23,0.061 -0.366,0.298 -0.305,0.528l2.713,10.124c0.062,0.229 0.298,0.366 0.528,0.304l0.833,-0.223c0.23,-0.061 0.366,-0.298 0.305,-0.528l-2.713,-10.123Z" style="fill:#fff;fill-opacity:0.97;"/><path d="M28.136,3.111c0.062,-0.23 0.298,-0.367 0.528,-0.305l0.833,0.223c0.23,0.061 0.366,0.298 0.305,0.528l-2.713,10.124c-0.062,0.229 -0.298,0.366 -0.528,0.304l-0.833,-0.223c-0.23,-0.061 -0.366,-0.298 -0.305,-0.528l2.713,-10.123Z" style="fill:#fff;fill-opacity:0.97;"/></svg>