<?xml version="1.0" encoding="UTF-8" standalone="no"?><!DOCTYPE svg PUBLIC "-//W3C//DTD SVG 1.1//EN" "http://www.w3.org/Graphics/SVG/1.1/DTD/svg11.dtd"><svg width="100%" height="100%" viewBox="0 0 32 16" version="1.1" xmlns="http://www.w3.org/2000/svg" xmlns:xlink="http://www.w3.org/1999/xlink" xml:space="preserve" xmlns:serif="http://www.serif.com/" style="fill-rule:evenodd;clip-rule:evenodd;stroke-linejoin:round;stroke-miterlimit:2;"><rect id="Techno_Double18" x="0" y="0" width="32" height="16" style="fill:none;"/><g id="Layer2"><rect id="rect4136" x="1.826" y="1.002" width="4.359" height="4.359" style="fill:#ffb8a8;fill-opacity:0.94;"/><rect id="rect4136-1" x="6.644" y="1.002" width="4.359" height="4.359" style="fill:#fff7a8;fill-opacity:0.94;"/><rect id="rect4136-0" x="1.826" y="5.82" width="4.359" height="4.359" style="fill:#a8ffaf;fill-opacity:0.94;"/><rect id="rect4136-5" x="6.644" y="5.82" width="4.359" height="4.359" style="fill:#ffa8f2;fill-opacity:0.94;"/><rect id="rect4136-8" x="11.462" y="5.82" width="4.359" height="4.359" style="fill:#a8ffaf;fill-opacity:0.94;"/><rect id="rect4136-2" x="11.462" y="1.002" width="4.359" height="4.359" style="fill:#ffb8a8;fill-opacity:0.94;"/><rect id="rect4136-7" x="1.826" y="10.639" width="4.359" height="4.359" style="fill:#a8c6ff;fill-opacity:0.94;"/><rect id="rect4136-52" x="6.644" y="10.639" width="4.359" height="4.359" style="fill:#fff7a8;fill-opacity:0.94;"/><rect id="rect4136-06" x="11.462" y="10.639" width="4.359" height="4.359" style="fill:#a8c6ff;fill-opacity:0.94;"/><rect id="rect4136-54" x="16.179" y="1.002" width="4.359" height="4.359" style="fill:#ffb8a8;fill-opacity:0.94;"/><rect id="rect4136-0-1" x="16.179" y="5.82" width="4.359" height="4.359" style="fill:#a8ffaf;fill-opacity:0.94;"/><rect id="rect4136-1-5" x="20.997" y="1.002" width="4.359" height="4.359" style="fill:#fff7a8;fill-opacity:0.94;"/><rect id="rect4136-5-9" x="20.997" y="5.82" width="4.359" height="4.359" style="fill:#ffa8f2;fill-opacity:0.94;"/><rect id="rect4136-8-1" x="25.815" y="5.82" width="4.359" height="4.359" style="fill:#a8ffaf;fill-opacity:0.94;"/><rect id="rect4136-2-0" x="25.815" y="1.002" width="4.359" height="4.359" style="fill:#ffb8a8;fill-opacity:0.94;"/><rect id="rect4136-7-5" x="16.179" y="10.639" width="4.359" height="4.359" style="fill:#a8c6ff;fill-opacity:0.94;"/><rect id="rect4136-52-4" x="20.997" y="10.639" width="4.359" height="4.359" style="fill:#fff7a8;fill-opacity:0.94;"/><rect id="rect4136-06-2" x="25.815" y="10.639" width="4.359" height="4.359" style="fill:#a8c6ff;fill-opacity:0.94;"/></g></svg>